<?xml version="1.0" encoding="UTF-8"?>
<!DOCTYPE svg PUBLIC "-//W3C//DTD SVG 1.1//EN" "http://www.w3.org/Graphics/SVG/1.1/DTD/svg11.dtd">
<!-- Creator: CorelDRAW X7 -->
<svg xmlns="http://www.w3.org/2000/svg" xml:space="preserve" width="185.208mm" height="95.25mm" version="1.1" style="shape-rendering:geometricPrecision; text-rendering:geometricPrecision; image-rendering:optimizeQuality; fill-rule:evenodd; clip-rule:evenodd"
viewBox="0 0 18521 9525"
 xmlns:xlink="http://www.w3.org/1999/xlink">
 <defs>
  <style type="text/css">
   <![CDATA[
    .fil7 {fill:#333333}
    .fil4 {fill:#333333}
    .fil3 {fill:#FDFDFD}
    .fil1 {fill:#FF4E13}
    .fil0 {fill:#FF6600}
    .fil2 {fill:#FF6633}
    .fil5 {fill:#333333;fill-rule:nonzero}
    .fil6 {fill:#333333;fill-rule:nonzero}
    .fil8 {fill:#FF6633;fill-rule:nonzero}
   ]]>
  </style>
 </defs>
 <g id="Camada_x0020_1">
  <metadata id="CorelCorpID_0Corel-Layer"/>
  <g id="_2945210402816">
   <g>
    <g>
     <path class="fil0" d="M14990 555c1077,682 1214,1628 1383,2750 180,1185 -667,-177 -1395,25 -136,35 -326,151 -454,171 -385,62 -1033,-170 -1178,-561 -144,-388 152,-859 309,-1129 286,-491 217,-602 259,-1221 41,-594 749,-242 1076,-35z"/>
     <path class="fil1" d="M14194 4092c77,81 368,115 581,273 418,309 -110,792 -368,997 -165,130 -367,218 -439,300 -148,165 -948,408 -1151,304 -71,-200 297,-311 431,-417 191,-152 329,-315 113,-566 -391,-456 -89,-868 507,-916 87,-11 319,18 326,25z"/>
     <path class="fil2" d="M15406 6022c110,-635 593,-1144 1053,-1368 61,-35 224,-97 301,-129 240,-99 429,64 278,397 -133,295 -599,732 -861,896 -355,208 -473,230 -771,204z"/>
     <path class="fil3" d="M15585 4129c-182,98 -424,-96 -542,-183 112,-4 211,8 318,27 227,39 220,53 224,156z"/>
     <path class="fil4" d="M15476 6022c300,-171 885,-904 1061,-1372 39,-104 124,-290 143,-417 -518,178 -1406,1471 -1566,2006 117,-32 287,-174 362,-217zm179 -1893c69,-77 3,-117 -224,-156 -107,-19 -206,-31 -318,-27 118,87 405,338 542,183zm1141 283c-137,383 -174,402 -218,499 -115,252 -381,657 -563,838 -231,227 -777,722 -1097,684 -23,-379 930,-1883 1684,-2320 98,-57 117,-43 144,-157 35,-145 46,-412 49,-568 14,-795 -119,-1453 -439,-2042 -229,-424 -999,-1265 -1368,-765 -80,109 -189,547 -289,754 -236,489 -368,452 -579,626 -439,362 36,1079 330,1400 654,703 823,281 1247,562 113,75 135,221 18,319 -138,114 -282,41 -399,-18 -514,-257 -308,-332 -685,-241 -123,30 -264,65 -367,109 -287,85 -731,282 -610,641 115,343 445,503 335,986 -61,266 -123,321 -295,505 -93,99 -499,310 -425,400 173,213 853,-636 1001,-783 133,-133 857,-864 1080,-670 -32,165 -214,72 -596,386 -451,370 -1316,1635 -1604,1130 -157,-274 486,-381 682,-927 126,-354 -159,-658 -279,-929 -218,-492 117,-634 385,-764 101,-48 260,-92 375,-131 106,-35 319,-72 402,-109 -65,-105 -344,-305 -609,-698 -252,-373 -462,-950 -95,-1250 122,-100 222,-127 346,-258 249,-265 382,-885 554,-1195 79,-143 159,-297 481,-174 833,321 1355,1341 1492,2262 83,563 23,907 2,1449 8,134 16,154 12,159 -46,56 -49,142 -102,290z"/>
     <path class="fil4" d="M15047 3303c149,-35 30,-332 199,-399 702,-281 977,1088 1134,1343 -61,-327 -42,-839 -443,-1261 -391,-412 -858,-377 -978,48 -32,113 -61,304 88,269z"/>
     <path class="fil4" d="M16670 4206c406,-95 804,-206 968,-595 221,-526 -334,-813 -517,-575 92,134 100,32 245,60 192,37 312,355 20,657 -145,150 -366,246 -561,290 -131,40 -210,65 -214,58l59 105z"/>
     <path class="fil4" d="M17977 3628c69,-24 165,7 160,120 -21,507 -910,365 -996,511 85,199 984,-43 1101,-383 76,-222 -159,-451 -356,-353 -149,74 -150,198 -103,273 48,75 71,45 102,-22 31,-66 -67,-90 92,-146z"/>
    </g>
    <polygon class="fil5" points="309,2588 309,4295 607,4295 607,2588 "/>
    <polygon id="1" class="fil5" points="2446,3071 2446,4295 2743,4295 2743,2588 2424,2588 1904,3395 1385,2588 1065,2588 1065,4295 1363,4295 1363,3076 1897,3876 1907,3876 "/>
    <path id="2" class="fil5" d="M4504 3161c0,-88 -15,-167 -45,-237 -30,-69 -73,-130 -129,-180 -56,-50 -124,-89 -205,-116 -80,-27 -170,-40 -269,-40l-674 0 0 1707 298 0 0 -549 340 0c95,0 183,-12 267,-37 83,-26 155,-63 217,-111 62,-49 111,-110 147,-183 36,-73 53,-158 53,-254zm-304 6c0,93 -33,168 -100,224 -65,57 -156,85 -270,85l-350 0 0 -617 350 0c113,0 203,25 269,77 67,51 101,128 101,231z"/>
    <path id="3" class="fil5" d="M5524 2576l-278 0 -751 1719 307 0 176 -412 807 0 173 412 317 0 -751 -1719zm151 1041l-588 0 293 -683 295 683z"/>
    <path id="4" class="fil5" d="M7949 4022l-193 -195c-73,68 -147,122 -222,162 -75,40 -164,60 -268,60 -82,0 -157,-16 -226,-48 -69,-31 -129,-75 -179,-130 -51,-55 -90,-120 -117,-194 -28,-74 -42,-153 -42,-238 0,-84 14,-163 42,-236 27,-74 66,-137 117,-192 50,-54 110,-97 179,-129 69,-32 144,-48 226,-48 97,0 184,20 261,59 76,39 148,90 217,153l192 -222c-40,-39 -83,-74 -129,-107 -45,-32 -95,-60 -149,-84 -53,-24 -112,-42 -177,-55 -64,-13 -135,-19 -213,-19 -130,0 -249,23 -356,69 -107,46 -200,110 -278,190 -78,81 -139,175 -182,282 -43,107 -64,222 -64,344 0,124 21,239 65,346 44,108 105,201 182,280 77,79 169,141 275,186 105,46 221,69 346,69 80,0 152,-7 218,-21 66,-14 127,-34 182,-61 55,-27 107,-59 155,-95 48,-37 94,-79 138,-126z"/>
    <polygon id="5" class="fil5" points="8985,2866 9527,2866 9527,2588 8141,2588 8141,2866 8683,2866 8683,4295 8985,4295 "/>
    <path id="6" class="fil5" d="M11461 3439c0,-120 -22,-234 -66,-341 -44,-108 -105,-201 -183,-281 -78,-80 -171,-143 -280,-189 -109,-46 -230,-69 -361,-69 -132,0 -252,23 -361,70 -109,48 -204,111 -283,192 -80,80 -142,174 -186,282 -44,107 -65,221 -65,341 0,120 21,234 65,342 44,107 105,200 183,280 78,80 172,143 281,189 109,46 229,70 361,70 132,0 252,-24 361,-71 109,-47 203,-111 283,-192 79,-80 141,-174 185,-281 44,-108 66,-222 66,-342zm-315 5c0,83 -14,161 -42,235 -29,74 -68,139 -119,193 -50,55 -111,98 -181,129 -71,32 -149,48 -233,48 -85,0 -163,-16 -234,-49 -72,-32 -133,-76 -185,-132 -51,-55 -91,-119 -119,-193 -29,-74 -43,-153 -43,-236 0,-83 14,-161 43,-235 28,-74 68,-138 118,-193 51,-54 111,-97 182,-129 71,-32 148,-48 233,-48 84,0 162,17 234,49 72,33 133,76 184,132 51,55 91,120 120,194 28,74 42,152 42,235z"/>
    <path id="7" class="fil5" d="M12063 3034c0,-57 25,-105 74,-145 48,-40 117,-60 205,-60 78,0 155,15 231,45 77,31 154,74 232,131l161 -227c-88,-70 -182,-123 -282,-160 -100,-36 -212,-54 -338,-54 -84,0 -162,11 -233,35 -72,23 -133,57 -184,101 -51,44 -90,96 -120,157 -28,61 -43,129 -43,204 0,80 12,147 38,203 25,55 62,102 110,141 48,39 108,72 178,98 71,26 152,49 244,70 80,20 144,39 194,56 50,18 89,37 118,58 28,20 48,42 58,67 11,24 16,52 16,83 0,66 -27,119 -82,158 -54,39 -128,59 -220,59 -108,0 -204,-19 -288,-57 -85,-39 -169,-94 -251,-165l-181 215c102,92 214,161 334,206 121,44 247,67 378,67 90,0 172,-12 247,-34 74,-23 138,-57 191,-100 53,-44 95,-98 125,-161 30,-64 45,-136 45,-218 0,-71 -12,-133 -36,-186 -23,-53 -58,-99 -104,-139 -45,-40 -103,-74 -172,-101 -69,-28 -149,-53 -238,-76 -82,-20 -149,-38 -202,-56 -53,-18 -95,-37 -125,-59 -30,-21 -51,-44 -62,-68 -12,-24 -18,-54 -18,-88z"/>
    <path class="fil6" d="M1001 5226c0,-49 -8,-93 -25,-132 -17,-39 -41,-72 -72,-101 -31,-28 -69,-49 -114,-64 -45,-15 -95,-23 -150,-23l-375 0 0 952 165 0 0 -306 190 0c52,0 102,-7 148,-21 47,-14 87,-35 121,-62 35,-27 62,-61 82,-102 20,-41 30,-88 30,-141zm-170 3c0,52 -18,94 -55,125 -37,31 -87,47 -151,47l-195 0 0 -344 195 0c63,0 113,15 150,43 38,29 56,72 56,129z"/>
    <path id="1" class="fil6" d="M2125 5381c0,-67 -12,-131 -37,-191 -24,-59 -58,-111 -102,-156 -43,-44 -95,-79 -156,-105 -61,-26 -128,-39 -201,-39 -73,0 -140,13 -201,40 -61,26 -113,61 -158,106 -44,45 -79,97 -103,157 -25,60 -37,123 -37,190 0,67 12,131 37,191 24,59 58,112 102,156 43,44 95,79 156,105 61,26 128,39 201,39 74,0 141,-13 201,-39 61,-27 114,-62 158,-107 44,-45 79,-97 103,-157 25,-60 37,-123 37,-190zm-175 2c0,47 -8,90 -24,132 -16,41 -38,77 -66,107 -28,30 -62,54 -101,72 -40,18 -83,26 -130,26 -47,0 -91,-9 -130,-27 -40,-18 -75,-42 -103,-73 -29,-31 -51,-67 -67,-108 -16,-41 -23,-85 -23,-131 0,-46 7,-90 23,-131 16,-42 38,-77 66,-108 28,-30 62,-54 101,-72 40,-17 83,-26 130,-26 47,0 91,9 131,27 40,18 74,42 102,73 29,31 51,67 67,108 16,42 24,85 24,131z"/>
    <path id="2" class="fil6" d="M2461 5155c0,-32 13,-59 40,-81 28,-22 66,-33 115,-33 43,0 86,8 129,25 42,17 85,41 129,73l89 -127c-48,-39 -101,-68 -156,-89 -56,-20 -119,-30 -189,-30 -47,0 -90,6 -130,20 -40,13 -74,31 -102,56 -28,24 -51,54 -67,88 -16,34 -24,71 -24,113 0,44 7,82 21,113 14,31 35,57 61,79 27,21 60,40 100,54 39,15 84,28 135,39 45,11 81,22 109,32 27,10 49,20 65,32 16,11 27,23 33,37 6,14 9,29 9,46 0,37 -16,67 -46,89 -30,21 -71,32 -123,32 -60,0 -113,-10 -160,-32 -47,-21 -94,-52 -140,-91l-101 119c57,52 119,90 186,115 67,25 138,37 211,37 50,0 96,-6 137,-19 42,-12 77,-31 107,-55 30,-25 53,-55 69,-90 17,-35 25,-76 25,-121 0,-40 -6,-75 -19,-104 -13,-29 -33,-55 -58,-77 -26,-23 -58,-41 -96,-57 -39,-15 -83,-29 -133,-42 -46,-11 -83,-21 -113,-31 -29,-10 -52,-21 -69,-33 -17,-12 -28,-24 -35,-38 -6,-14 -9,-30 -9,-49z"/>
    <polygon id="3" class="fil6" points="3200,4906 3200,5858 3366,5858 3366,4906 "/>
    <polygon id="4" class="fil6" points="4023,5061 4325,5061 4325,4906 3553,4906 3553,5061 3855,5061 3855,5858 4023,5858 "/>
    <polygon id="5" class="fil6" points="4511,4906 4511,5858 4677,5858 4677,4906 "/>
    <polygon id="6" class="fil6" points="5323,5638 5036,4906 4851,4906 5247,5865 5393,5865 5789,4906 5608,4906 "/>
    <path id="7" class="fil6" d="M6846 5381c0,-67 -12,-131 -37,-191 -24,-59 -58,-111 -102,-156 -43,-44 -95,-79 -156,-105 -61,-26 -128,-39 -201,-39 -73,0 -140,13 -201,40 -61,26 -113,61 -158,106 -44,45 -79,97 -103,157 -24,60 -37,123 -37,190 0,67 13,131 37,191 24,59 58,112 102,156 43,44 95,79 156,105 61,26 128,39 201,39 74,0 141,-13 201,-39 61,-27 114,-62 158,-107 44,-45 79,-97 103,-157 25,-60 37,-123 37,-190zm-175 2c0,47 -8,90 -24,132 -16,41 -38,77 -66,107 -28,30 -62,54 -101,72 -40,18 -83,26 -130,26 -47,0 -91,-9 -130,-27 -40,-18 -75,-42 -103,-73 -29,-31 -51,-67 -67,-108 -15,-41 -23,-85 -23,-131 0,-46 8,-90 23,-131 16,-42 38,-77 66,-108 28,-30 62,-54 102,-72 39,-17 82,-26 129,-26 47,0 91,9 131,27 40,18 74,42 102,73 29,31 51,67 67,108 16,42 24,85 24,131z"/>
    <path id="8" class="fil6" d="M7182 5155c0,-32 13,-59 40,-81 28,-22 66,-33 115,-33 43,0 86,8 129,25 42,17 85,41 129,73l90 -127c-49,-39 -102,-68 -157,-89 -56,-20 -119,-30 -189,-30 -47,0 -90,6 -130,20 -40,13 -74,31 -102,56 -28,24 -51,54 -67,88 -16,34 -24,71 -24,113 0,44 7,82 21,113 14,31 35,57 61,79 27,21 60,40 100,54 39,15 84,28 135,39 45,11 81,22 109,32 27,10 49,20 65,32 16,11 27,23 33,37 6,14 9,29 9,46 0,37 -16,67 -46,89 -30,21 -71,32 -123,32 -60,0 -113,-10 -160,-32 -47,-21 -94,-52 -140,-91l-101 119c57,52 119,90 186,115 67,25 138,37 211,37 50,0 96,-6 137,-19 42,-12 78,-31 107,-55 30,-25 53,-55 70,-90 16,-35 24,-76 24,-121 0,-40 -6,-75 -19,-104 -13,-29 -33,-55 -58,-77 -26,-23 -58,-41 -96,-57 -39,-15 -83,-29 -133,-42 -46,-11 -83,-21 -113,-31 -29,-10 -52,-21 -69,-33 -17,-12 -28,-24 -35,-38 -6,-14 -9,-30 -9,-49z"/>
    <path class="fil7" d="M16083 6490c-2055,1152 -4777,525 -7420,5 -2642,-520 -5582,-226 -7831,-234 2232,246 4984,44 7626,599 2641,555 5954,1302 7625,-370z"/>
   </g>
   <path class="fil8" d="M626 7137c105,0 186,25 244,76 58,50 87,121 87,213 0,97 -29,172 -87,225 -58,54 -139,81 -244,81l-147 0 0 227 -214 0 0 -822 361 0zm-11 424c44,0 78,-11 102,-33 24,-22 36,-54 36,-95 0,-40 -12,-71 -36,-92 -24,-22 -58,-33 -102,-33l-136 0 0 253 136 0z"/>
   <path id="1" class="fil8" d="M1556 7959l-119 -227 -5 0 -155 0 0 227 -215 0 0 -822 370 0c109,0 193,25 253,76 59,50 89,121 89,213 0,61 -12,115 -37,160 -25,45 -62,80 -109,105l171 268 -243 0zm-279 -398l156 0c44,0 78,-11 101,-33 24,-22 36,-54 36,-95 0,-40 -12,-71 -36,-92 -23,-22 -57,-33 -101,-33l-156 0 0 253z"/>
   <path id="2" class="fil8" d="M1912 7137l648 0 0 171 -434 0 0 154 392 0 0 170 -392 1 0 155 446 0 0 171 -660 0 0 -822zm550 -66l-150 0 -70 -78 -70 78 -150 0 128 -179 184 0 128 179z"/>
   <polygon id="3" class="fil8" points="2703,7137 2937,7137 3175,7618 3412,7137 3645,7137 3645,7959 3455,7959 3454,7439 3244,7877 3106,7877 2895,7439 2895,7959 2703,7959 "/>
   <polygon id="4" class="fil8" points="3805,7137 4020,7137 4020,7959 3805,7959 "/>
   <path id="5" class="fil8" d="M4571 7124c84,0 159,19 227,55 68,37 121,87 160,152 38,64 58,136 58,215 0,81 -20,154 -58,219 -39,65 -92,116 -160,153 -68,38 -143,57 -227,57 -84,0 -159,-19 -227,-56 -68,-37 -121,-88 -160,-154 -38,-65 -58,-138 -58,-219 0,-79 20,-151 58,-215 39,-65 92,-115 160,-152 68,-36 143,-55 227,-55zm2 182c-40,0 -78,11 -113,32 -35,21 -62,50 -83,87 -20,37 -30,78 -30,123 0,45 10,86 31,123 21,38 48,67 83,88 34,22 72,33 112,33 41,0 78,-11 112,-33 34,-21 61,-50 81,-88 19,-37 29,-78 29,-123 0,-45 -10,-86 -29,-123 -20,-37 -47,-66 -81,-87 -34,-21 -71,-32 -112,-32z"/>
   <path class="fil8" d="M1004 8680c-31,-38 -67,-69 -109,-91 -42,-23 -83,-34 -124,-34 -48,0 -91,11 -130,35 -38,24 -69,56 -91,98 -23,41 -34,87 -34,138 0,51 11,97 34,139 22,41 53,74 91,98 39,23 82,35 130,35 38,0 78,-10 120,-29 42,-20 80,-47 113,-81l143 154c-51,54 -111,97 -181,128 -71,32 -140,48 -209,48 -93,0 -176,-22 -251,-65 -75,-42 -134,-101 -177,-175 -43,-74 -64,-157 -64,-249 0,-91 21,-173 65,-246 44,-74 104,-131 180,-173 77,-42 162,-63 257,-63 69,0 138,15 206,44 68,29 125,68 173,118l-142 171z"/>
   <path id="1" class="fil8" d="M1941 9300l-64 -166 -406 0 -66 166 -251 0 403 -938 251 0 394 938 -261 0zm-396 -353l259 0 -128 -335 -131 335z"/>
   <polygon id="2" class="fil8" points="2104,8362 2909,8362 2909,8564 2628,8564 2628,9300 2383,9300 2383,8564 2104,8564 "/>
   <polygon id="3" class="fil8" points="3008,8362 3748,8362 3748,8557 3253,8557 3253,8733 3700,8733 3700,8927 3253,8928 3253,9105 3762,9105 3762,9300 3008,9300 "/>
   <path id="4" class="fil8" d="M4533 8821l212 0 0 374c-50,36 -112,66 -184,89 -73,22 -142,34 -207,34 -95,0 -180,-21 -257,-64 -76,-42 -136,-101 -180,-175 -44,-74 -65,-157 -65,-249 0,-91 22,-173 67,-247 45,-73 107,-131 186,-173 79,-42 167,-63 265,-63 69,0 139,13 209,38 69,26 128,60 176,103l-139 171c-34,-32 -73,-58 -117,-76 -44,-19 -88,-28 -131,-28 -50,0 -95,12 -135,36 -40,24 -72,57 -95,99 -23,42 -35,89 -35,140 0,53 12,101 35,143 23,42 55,76 96,100 42,24 87,36 137,36 47,0 101,-15 162,-46l0 -242z"/>
   <path id="5" class="fil8" d="M5354 8347c95,0 182,21 259,63 77,42 138,99 182,173 44,73 66,155 66,246 0,92 -22,175 -66,249 -44,74 -105,133 -182,175 -77,43 -164,65 -259,65 -96,0 -182,-21 -259,-64 -77,-42 -138,-101 -182,-175 -45,-75 -67,-158 -67,-250 0,-91 22,-173 67,-246 44,-74 105,-131 182,-173 77,-42 163,-63 259,-63zm3 208c-47,0 -90,12 -130,36 -39,24 -71,57 -94,99 -23,43 -35,89 -35,140 0,52 12,99 36,142 23,42 55,75 94,100 39,25 82,37 129,37 46,0 89,-12 127,-37 39,-25 70,-58 92,-100 22,-43 34,-90 34,-142 0,-51 -12,-97 -34,-140 -22,-42 -53,-75 -92,-99 -38,-24 -81,-36 -127,-36z"/>
   <path id="6" class="fil8" d="M6547 9300l-137 -259 -5 0 -177 0 0 259 -245 0 0 -938 422 0c124,0 220,29 288,86 69,58 103,139 103,243 0,71 -14,132 -43,183 -29,51 -70,91 -125,120l196 306 -277 0zm-319 -455l178 0c50,0 89,-12 116,-37 27,-25 41,-62 41,-109 0,-45 -14,-80 -41,-105 -27,-25 -66,-37 -116,-37l-178 0 0 288z"/>
   <polygon id="7" class="fil8" points="6953,8362 7198,8362 7198,9300 6953,9300 "/>
   <path id="8" class="fil8" d="M8069 9300l-64 -166 -406 0 -65 166 -252 0 403 -938 252 0 393 938 -261 0zm-396 -353l260 0 -129 -335 -131 335z"/>
   <path id="9" class="fil8" d="M9359 8644c-50,-29 -104,-53 -160,-72 -57,-19 -105,-28 -143,-28 -30,0 -54,5 -72,17 -17,11 -26,27 -26,48 0,21 8,38 23,52 15,14 34,25 56,33 23,9 56,20 99,33 65,19 119,38 162,57 42,18 78,47 109,86 30,39 45,89 45,152 0,62 -16,116 -49,160 -33,44 -79,77 -136,100 -58,22 -122,33 -192,33 -78,0 -155,-14 -233,-41 -77,-27 -144,-64 -200,-112l95 -191c48,42 104,76 168,103 65,27 122,40 172,40 37,0 66,-6 87,-20 21,-13 31,-33 31,-59 0,-21 -8,-39 -23,-53 -16,-15 -35,-26 -59,-34 -24,-9 -57,-19 -100,-31 -64,-17 -117,-36 -159,-54 -42,-18 -78,-46 -108,-83 -30,-37 -45,-86 -45,-148 0,-58 16,-109 46,-152 31,-44 75,-78 132,-102 56,-23 122,-35 197,-35 68,0 135,10 201,29 66,19 124,45 174,77l-92 195z"/>
   <path id="10" class="fil8" d="M10024 8347c96,0 182,21 259,63 77,42 138,99 182,173 44,73 66,155 66,246 0,92 -22,175 -66,249 -44,74 -105,133 -182,175 -77,43 -163,65 -259,65 -96,0 -182,-21 -259,-64 -77,-42 -138,-101 -182,-175 -44,-75 -66,-158 -66,-250 0,-91 22,-173 66,-246 44,-74 105,-131 182,-173 77,-42 163,-63 259,-63zm3 208c-47,0 -90,12 -130,36 -39,24 -71,57 -94,99 -23,43 -35,89 -35,140 0,52 12,99 36,142 23,42 55,75 94,100 39,25 82,37 129,37 46,0 89,-12 128,-37 38,-25 69,-58 91,-100 23,-43 34,-90 34,-142 0,-51 -11,-97 -34,-140 -22,-42 -53,-75 -91,-99 -39,-24 -82,-36 -128,-36z"/>
   <path id="11" class="fil8" d="M11316 8680c-30,-38 -66,-69 -108,-91 -42,-23 -84,-34 -125,-34 -47,0 -90,11 -129,35 -39,24 -70,56 -92,98 -22,41 -33,87 -33,138 0,51 11,97 33,139 22,41 53,74 92,98 39,23 82,35 129,35 38,0 79,-10 121,-29 42,-20 79,-47 112,-81l143 154c-51,54 -111,97 -181,128 -70,32 -140,48 -208,48 -93,0 -177,-22 -252,-65 -75,-42 -134,-101 -177,-175 -43,-74 -64,-157 -64,-249 0,-91 22,-173 66,-246 43,-74 103,-131 180,-173 76,-42 161,-63 256,-63 70,0 138,15 206,44 68,29 126,68 173,118l-142 171z"/>
   <polygon id="12" class="fil8" points="11564,8362 11809,8362 11809,9300 11564,9300 "/>
   <path id="13" class="fil8" d="M12680 9300l-64 -166 -406 0 -65 166 -252 0 403 -938 252 0 393 938 -261 0zm-396 -353l260 0 -129 -335 -131 335z"/>
   <polygon id="14" class="fil8" points="13026,8362 13271,8362 13271,9091 13669,9091 13669,9300 13026,9300 "/>
  </g>
 </g>
</svg>
