<?xml version="1.0" encoding="UTF-8"?>
<!DOCTYPE svg PUBLIC "-//W3C//DTD SVG 1.1//EN" "http://www.w3.org/Graphics/SVG/1.1/DTD/svg11.dtd">
<!-- Creator: CorelDRAW X7 -->
<svg xmlns="http://www.w3.org/2000/svg" xml:space="preserve" width="185.208mm" height="95.25mm" version="1.1" style="shape-rendering:geometricPrecision; text-rendering:geometricPrecision; image-rendering:optimizeQuality; fill-rule:evenodd; clip-rule:evenodd"
viewBox="0 0 18521 9525"
 xmlns:xlink="http://www.w3.org/1999/xlink">
 <defs>
  <style type="text/css">
   <![CDATA[
    .fil1 {fill:#2CB084}
    .fil7 {fill:#333333}
    .fil4 {fill:#333333}
    .fil2 {fill:#33CC99}
    .fil0 {fill:#33CC99}
    .fil3 {fill:#FDFDFD}
    .fil5 {fill:#333333;fill-rule:nonzero}
    .fil6 {fill:#333333;fill-rule:nonzero}
    .fil8 {fill:#33CC99;fill-rule:nonzero}
   ]]>
  </style>
 </defs>
 <g id="Camada_x0020_1">
  <metadata id="CorelCorpID_0Corel-Layer"/>
  <g id="_2945214149552">
   <g>
    <g>
     <path class="fil0" d="M14990 612c1077,682 1214,1628 1383,2750 180,1186 -667,-177 -1395,26 -136,35 -326,150 -454,171 -385,62 -1033,-170 -1178,-562 -144,-388 152,-858 309,-1128 286,-491 217,-602 259,-1221 41,-594 749,-243 1076,-36z"/>
     <path class="fil1" d="M14194 4150c77,81 368,115 581,272 418,309 -110,792 -368,997 -165,131 -367,219 -439,300 -148,166 -948,408 -1151,304 -71,-200 297,-310 431,-417 191,-152 329,-315 113,-566 -391,-455 -89,-868 507,-915 87,-12 319,18 326,25z"/>
     <path class="fil2" d="M15406 6079c110,-635 593,-1144 1053,-1368 61,-34 224,-96 301,-128 240,-99 429,63 278,397 -133,295 -599,732 -861,895 -355,208 -473,230 -771,204z"/>
     <path class="fil3" d="M15585 4187c-182,97 -424,-97 -542,-183 112,-4 211,8 318,26 227,40 220,54 224,157z"/>
     <path class="fil4" d="M15476 6079c300,-170 885,-904 1061,-1372 39,-103 124,-289 143,-416 -518,177 -1406,1470 -1566,2006 117,-33 287,-175 362,-218zm179 -1892c69,-77 3,-117 -224,-157 -107,-18 -206,-30 -318,-26 118,86 405,338 542,183zm1141 283c-137,382 -174,401 -218,499 -115,252 -381,656 -563,837 -231,228 -777,722 -1097,684 -23,-379 930,-1883 1684,-2320 98,-57 117,-42 144,-157 35,-144 46,-411 49,-567 14,-796 -119,-1453 -439,-2043 -229,-423 -999,-1265 -1368,-764 -80,109 -189,547 -289,753 -236,490 -368,452 -579,626 -439,363 36,1079 330,1400 654,704 823,282 1247,563 113,74 135,220 18,318 -138,115 -282,41 -399,-18 -514,-256 -308,-332 -685,-240 -123,29 -264,65 -367,109 -287,85 -731,281 -610,641 115,343 445,502 335,986 -61,266 -123,321 -295,505 -93,98 -499,310 -425,400 173,213 853,-636 1001,-783 133,-134 857,-864 1080,-671 -32,165 -214,73 -596,386 -451,370 -1316,1635 -1604,1130 -157,-273 486,-380 682,-927 126,-353 -159,-657 -279,-928 -218,-493 117,-635 385,-764 101,-49 260,-93 375,-131 106,-36 319,-72 402,-110 -65,-105 -344,-304 -609,-698 -252,-372 -462,-949 -95,-1249 122,-101 222,-127 346,-258 249,-266 382,-886 554,-1195 79,-143 159,-298 481,-174 833,321 1355,1340 1492,2262 83,562 23,907 2,1448 8,135 16,154 12,159 -46,57 -49,143 -102,291z"/>
     <path class="fil4" d="M15047 3360c149,-35 30,-331 199,-399 702,-280 977,1088 1134,1343 -61,-327 -42,-838 -443,-1260 -391,-412 -858,-377 -978,48 -32,112 -61,304 88,268z"/>
     <path class="fil4" d="M16670 4263c406,-94 804,-205 968,-595 221,-526 -334,-812 -517,-575 92,134 100,33 245,60 192,37 312,356 20,657 -145,150 -366,246 -561,290 -131,41 -210,65 -214,58l59 105z"/>
     <path class="fil4" d="M17977 3686c69,-24 165,7 160,119 -21,508 -910,366 -996,511 85,199 984,-43 1101,-383 76,-221 -159,-451 -356,-352 -149,74 -150,198 -103,273 48,74 71,45 102,-22 31,-67 -67,-91 92,-146z"/>
    </g>
    <polygon class="fil5" points="309,2645 309,4353 607,4353 607,2645 "/>
    <polygon id="1" class="fil5" points="2446,3128 2446,4353 2743,4353 2743,2645 2424,2645 1904,3453 1385,2645 1065,2645 1065,4353 1363,4353 1363,3133 1897,3933 1907,3933 "/>
    <path id="2" class="fil5" d="M4504 3219c0,-88 -15,-167 -45,-237 -30,-70 -73,-130 -129,-180 -56,-51 -124,-89 -205,-116 -80,-27 -170,-41 -269,-41l-674 0 0 1708 298 0 0 -549 340 0c95,0 183,-13 267,-38 83,-25 155,-62 217,-111 62,-49 111,-110 147,-183 36,-73 53,-157 53,-253zm-304 6c0,93 -33,168 -100,224 -65,56 -156,84 -270,84l-350 0 0 -617 350 0c113,0 203,26 269,77 67,52 101,129 101,232z"/>
    <path id="3" class="fil5" d="M5524 2633l-278 0 -751 1720 307 0 176 -412 807 0 173 412 317 0 -751 -1720zm151 1042l-588 0 293 -683 295 683z"/>
    <path id="4" class="fil5" d="M7949 4080l-193 -195c-73,68 -147,122 -222,162 -75,40 -164,59 -268,59 -82,0 -157,-15 -226,-47 -69,-32 -129,-75 -179,-131 -51,-55 -90,-120 -117,-193 -28,-74 -42,-154 -42,-238 0,-85 14,-164 42,-237 27,-73 66,-137 117,-191 50,-55 110,-98 179,-130 69,-31 144,-47 226,-47 97,0 184,19 261,58 76,39 148,91 217,154l192 -222c-40,-39 -83,-75 -129,-107 -45,-33 -95,-61 -149,-84 -53,-24 -112,-42 -177,-55 -64,-13 -135,-20 -213,-20 -130,0 -249,23 -356,70 -107,46 -200,109 -278,190 -78,80 -139,174 -182,282 -43,107 -64,222 -64,344 0,123 21,239 65,346 44,107 105,200 182,279 77,79 169,141 275,187 105,45 221,68 346,68 80,0 152,-7 218,-21 66,-13 127,-34 182,-61 55,-26 107,-58 155,-95 48,-36 94,-78 138,-125z"/>
    <polygon id="5" class="fil5" points="8985,2923 9527,2923 9527,2645 8141,2645 8141,2923 8683,2923 8683,4353 8985,4353 "/>
    <path id="6" class="fil5" d="M11461 3497c0,-121 -22,-234 -66,-342 -44,-107 -105,-201 -183,-280 -78,-80 -171,-143 -280,-189 -109,-47 -230,-70 -361,-70 -132,0 -252,24 -361,71 -109,47 -204,111 -283,191 -80,81 -142,175 -186,282 -44,107 -66,221 -66,342 0,120 22,234 66,341 44,107 105,201 183,281 78,79 172,142 281,189 109,46 229,69 361,69 131,0 252,-23 361,-71 109,-47 203,-111 283,-191 79,-81 141,-175 185,-282 44,-107 66,-221 66,-341zm-315 5c0,83 -14,161 -42,235 -29,74 -68,138 -119,193 -50,54 -111,97 -181,129 -71,32 -149,47 -233,47 -85,0 -163,-16 -234,-48 -72,-33 -133,-77 -185,-132 -51,-55 -91,-120 -119,-194 -29,-74 -43,-152 -43,-235 0,-83 14,-162 43,-236 28,-74 68,-138 118,-192 51,-55 111,-98 182,-130 71,-31 148,-47 233,-47 84,0 162,16 234,49 71,32 133,76 184,131 51,56 91,120 120,194 28,74 42,153 42,236z"/>
    <path id="7" class="fil5" d="M12063 3092c0,-57 25,-105 74,-145 48,-40 117,-60 204,-60 79,0 156,15 232,45 77,30 154,74 232,131l161 -227c-88,-70 -182,-123 -282,-160 -100,-37 -212,-55 -338,-55 -84,0 -162,12 -233,35 -72,24 -133,58 -184,102 -51,44 -90,96 -120,157 -29,61 -43,129 -43,204 0,79 12,147 38,202 25,55 62,103 110,142 48,39 108,71 178,97 71,26 152,50 244,71 79,19 144,38 194,56 50,18 89,37 118,57 28,21 48,43 58,67 11,25 16,52 16,83 0,67 -27,120 -82,159 -54,39 -128,58 -220,58 -108,0 -204,-19 -288,-57 -85,-38 -169,-93 -252,-165l-180 215c102,93 214,161 334,206 120,45 247,67 378,67 90,0 172,-11 247,-34 74,-23 138,-56 191,-100 53,-44 95,-97 125,-161 30,-63 45,-136 45,-217 0,-72 -12,-134 -36,-187 -23,-52 -58,-99 -104,-139 -45,-39 -103,-73 -172,-101 -69,-27 -149,-53 -238,-75 -82,-20 -149,-39 -203,-57 -52,-17 -94,-37 -124,-58 -30,-21 -51,-44 -63,-68 -11,-25 -17,-54 -17,-88z"/>
    <path class="fil6" d="M1001 5283c0,-49 -8,-93 -25,-131 -17,-39 -41,-73 -72,-101 -31,-28 -69,-50 -114,-65 -45,-15 -95,-22 -150,-22l-375 0 0 951 165 0 0 -306 190 0c52,0 102,-7 148,-21 47,-14 87,-34 121,-61 35,-28 62,-62 82,-102 20,-41 30,-88 30,-142zm-170 4c0,52 -18,93 -55,125 -37,31 -87,47 -151,47l-195 0 0 -344 195 0c63,0 113,14 150,43 38,28 56,71 56,129z"/>
    <path id="1" class="fil6" d="M2125 5438c0,-67 -12,-130 -37,-190 -24,-60 -58,-112 -102,-156 -43,-45 -95,-80 -156,-106 -61,-25 -128,-38 -201,-38 -73,0 -140,13 -201,39 -61,26 -113,62 -158,107 -44,45 -79,97 -103,157 -25,60 -37,123 -37,190 0,67 12,130 37,190 24,60 58,112 102,157 43,44 95,79 156,105 61,26 128,39 201,39 74,0 141,-14 201,-40 61,-26 114,-62 158,-107 44,-44 79,-97 103,-156 25,-60 37,-124 37,-191zm-175 3c0,46 -8,90 -24,131 -16,41 -38,77 -66,107 -28,31 -62,55 -101,72 -40,18 -83,27 -130,27 -47,0 -91,-9 -130,-27 -40,-18 -75,-43 -103,-74 -29,-30 -51,-66 -67,-108 -16,-41 -23,-85 -23,-131 0,-46 7,-90 23,-131 16,-41 38,-77 66,-107 28,-31 62,-55 101,-72 40,-18 83,-27 130,-27 47,0 91,9 131,27 40,19 74,43 102,74 29,31 51,67 67,108 16,41 24,85 24,131z"/>
    <path id="2" class="fil6" d="M2461 5213c0,-32 13,-59 40,-81 28,-22 66,-33 115,-33 43,0 86,8 129,25 42,16 85,41 129,72l89 -126c-48,-39 -101,-69 -156,-89 -56,-20 -119,-31 -189,-31 -47,0 -90,7 -130,20 -40,13 -74,32 -102,56 -28,25 -51,54 -67,88 -16,34 -24,72 -24,114 0,44 7,82 21,112 14,31 35,57 61,79 27,22 60,40 100,55 39,14 84,27 135,39 45,11 81,21 109,31 27,10 49,21 65,32 16,12 27,24 33,38 6,13 9,29 9,46 0,37 -16,66 -46,88 -30,22 -71,33 -123,33 -60,0 -113,-11 -160,-32 -47,-22 -94,-52 -140,-92l-101 120c57,51 119,90 186,114 67,25 138,38 211,38 50,0 96,-7 137,-19 42,-13 77,-31 107,-56 30,-24 53,-54 69,-90 17,-35 25,-75 25,-121 0,-39 -6,-74 -19,-104 -13,-29 -33,-55 -58,-77 -26,-22 -58,-41 -96,-56 -39,-16 -83,-30 -133,-42 -46,-11 -83,-22 -113,-32 -29,-10 -52,-21 -69,-32 -17,-12 -28,-25 -35,-38 -6,-14 -9,-30 -9,-49z"/>
    <polygon id="3" class="fil6" points="3200,4964 3200,5915 3366,5915 3366,4964 "/>
    <polygon id="4" class="fil6" points="4023,5119 4325,5119 4325,4964 3553,4964 3553,5119 3855,5119 3855,5915 4023,5915 "/>
    <polygon id="5" class="fil6" points="4511,4964 4511,5915 4677,5915 4677,4964 "/>
    <polygon id="6" class="fil6" points="5323,5695 5036,4964 4851,4964 5247,5922 5393,5922 5789,4964 5608,4964 "/>
    <path id="7" class="fil6" d="M6846 5438c0,-67 -12,-130 -37,-190 -24,-60 -58,-112 -102,-156 -43,-45 -95,-80 -156,-106 -61,-25 -128,-38 -201,-38 -73,0 -140,13 -201,39 -61,26 -113,62 -158,107 -44,45 -79,97 -103,157 -24,60 -37,123 -37,190 0,67 13,130 37,190 24,60 58,112 102,157 43,44 95,79 156,105 61,26 128,39 201,39 74,0 141,-14 201,-40 61,-26 114,-62 158,-107 44,-44 79,-97 103,-156 25,-60 37,-124 37,-191zm-175 3c0,46 -8,90 -24,131 -16,41 -38,77 -66,107 -28,31 -62,55 -101,72 -40,18 -83,27 -130,27 -47,0 -91,-9 -130,-27 -40,-18 -75,-43 -103,-74 -29,-30 -51,-66 -67,-108 -15,-41 -23,-85 -23,-131 0,-46 8,-90 23,-131 16,-41 38,-77 66,-107 28,-31 62,-55 102,-72 39,-18 82,-27 129,-27 47,0 91,9 131,27 40,19 74,43 102,74 29,31 51,67 67,108 16,41 24,85 24,131z"/>
    <path id="8" class="fil6" d="M7182 5213c0,-32 13,-59 40,-81 28,-22 66,-33 115,-33 43,0 86,8 129,25 42,16 85,41 129,72l90 -126c-49,-39 -102,-69 -157,-89 -56,-20 -119,-31 -189,-31 -47,0 -90,7 -130,20 -40,13 -74,32 -102,56 -28,25 -51,54 -67,88 -16,34 -24,72 -24,114 0,44 7,82 21,112 14,31 35,57 61,79 27,22 60,40 100,55 39,14 84,27 135,39 45,11 81,21 109,31 27,10 49,21 65,32 16,12 27,24 33,38 6,13 9,29 9,46 0,37 -16,66 -46,88 -30,22 -71,33 -123,33 -60,0 -113,-11 -160,-32 -47,-22 -94,-52 -140,-92l-101 120c57,51 119,90 186,114 67,25 138,38 211,38 50,0 96,-7 137,-19 42,-13 78,-31 107,-56 30,-24 53,-54 70,-90 16,-35 24,-75 24,-121 0,-39 -6,-74 -19,-104 -13,-29 -33,-55 -58,-77 -26,-22 -58,-41 -96,-56 -39,-16 -83,-30 -133,-42 -46,-11 -83,-22 -113,-32 -29,-10 -52,-21 -69,-32 -17,-12 -28,-25 -35,-38 -6,-14 -9,-30 -9,-49z"/>
    <path class="fil7" d="M16083 6548c-2055,1152 -4777,524 -7420,4 -2642,-519 -5582,-225 -7831,-233 2232,246 4984,43 7626,599 2641,555 5954,1302 7625,-370z"/>
   </g>
   <path class="fil8" d="M626 7079c105,0 186,26 244,76 58,51 87,122 87,213 0,97 -29,172 -87,226 -58,53 -139,80 -244,80l-147 0 0 228 -214 0 0 -823 361 0zm-11 424c44,0 78,-11 102,-33 24,-22 36,-53 36,-95 0,-40 -12,-70 -36,-92 -24,-21 -58,-32 -102,-32l-136 0 0 252 136 0z"/>
   <path id="1" class="fil8" d="M1556 7902l-119 -228 -5 0 -155 0 0 228 -215 0 0 -823 370 0c109,0 193,26 253,76 59,51 89,122 89,213 0,62 -12,115 -37,160 -25,45 -62,80 -109,105l171 269 -243 0zm-279 -399l156 0c44,0 78,-11 101,-33 24,-22 36,-53 36,-95 0,-40 -12,-70 -36,-92 -23,-21 -57,-32 -101,-32l-156 0 0 252z"/>
   <path id="2" class="fil8" d="M1912 7079l648 0 0 172 -434 0 0 153 392 0 0 171 -392 1 0 155 446 0 0 171 -660 0 0 -823zm550 -65l-150 0 -70 -79 -70 79 -150 0 128 -180 184 0 128 180z"/>
   <polygon id="3" class="fil8" points="2703,7079 2937,7079 3175,7560 3412,7079 3645,7079 3645,7902 3455,7902 3454,7381 3244,7820 3106,7820 2895,7381 2895,7902 2703,7902 "/>
   <polygon id="4" class="fil8" points="3805,7079 4020,7079 4020,7902 3805,7902 "/>
   <path id="5" class="fil8" d="M4571 7067c84,0 159,18 227,55 68,36 121,87 160,151 38,64 58,136 58,216 0,80 -20,153 -58,218 -39,65 -92,116 -160,154 -68,37 -143,56 -227,56 -84,0 -159,-18 -227,-56 -68,-37 -121,-88 -160,-153 -38,-66 -58,-139 -58,-219 0,-80 20,-152 58,-216 39,-64 92,-115 160,-151 68,-37 143,-55 227,-55zm2 181c-40,0 -78,11 -113,32 -35,21 -62,50 -83,87 -20,38 -30,79 -30,123 0,45 10,87 31,124 21,37 48,66 83,88 34,21 72,32 112,32 41,0 78,-11 112,-32 34,-22 61,-51 81,-88 19,-37 29,-79 29,-124 0,-44 -10,-85 -29,-123 -20,-37 -47,-66 -81,-87 -34,-21 -71,-32 -112,-32z"/>
   <path class="fil8" d="M1004 8623c-31,-39 -67,-69 -109,-92 -42,-23 -83,-34 -124,-34 -48,0 -91,12 -130,35 -38,24 -69,57 -91,98 -23,42 -34,88 -34,139 0,51 11,97 34,138 22,42 53,74 91,98 39,24 82,36 130,36 38,0 78,-10 120,-30 42,-19 80,-46 113,-80l143 154c-51,53 -111,96 -181,128 -71,31 -140,47 -209,47 -93,0 -176,-21 -251,-64 -75,-43 -134,-101 -177,-175 -43,-75 -64,-158 -64,-250 0,-91 21,-173 65,-246 44,-73 104,-131 180,-173 77,-42 162,-63 257,-63 69,0 138,15 206,44 68,29 125,69 173,118l-142 172z"/>
   <path id="1" class="fil8" d="M1941 9243l-64 -166 -406 0 -66 166 -251 0 403 -939 251 0 394 939 -261 0zm-396 -354l259 0 -128 -334 -131 334z"/>
   <polygon id="2" class="fil8" points="2104,8304 2909,8304 2909,8506 2628,8506 2628,9243 2383,9243 2383,8506 2104,8506 "/>
   <polygon id="3" class="fil8" points="3008,8304 3748,8304 3748,8500 3253,8500 3253,8675 3700,8675 3700,8869 3253,8871 3253,9047 3762,9047 3762,9243 3008,9243 "/>
   <path id="4" class="fil8" d="M4533 8763l212 0 0 374c-50,37 -112,66 -184,89 -73,23 -142,34 -207,34 -95,0 -180,-21 -257,-63 -76,-43 -136,-101 -180,-175 -44,-74 -65,-157 -65,-249 0,-91 22,-174 67,-247 45,-74 107,-132 186,-174 79,-42 167,-63 265,-63 69,0 139,13 209,39 69,25 128,59 176,102l-139 171c-34,-32 -73,-57 -117,-76 -44,-19 -88,-28 -131,-28 -50,0 -95,12 -135,36 -40,24 -72,57 -95,99 -23,42 -35,89 -35,141 0,52 12,100 35,142 23,43 55,76 96,100 42,24 87,36 137,36 47,0 101,-15 162,-45l0 -243z"/>
   <path id="5" class="fil8" d="M5354 8289c95,0 182,21 259,63 77,42 138,100 182,173 44,73 66,155 66,246 0,92 -22,175 -66,250 -44,74 -105,132 -182,175 -77,43 -164,64 -259,64 -96,0 -182,-21 -259,-63 -77,-43 -138,-101 -182,-176 -45,-74 -67,-158 -67,-250 0,-91 22,-173 67,-246 44,-73 105,-131 182,-173 77,-42 163,-63 259,-63zm3 208c-47,0 -90,12 -130,36 -39,24 -71,58 -94,100 -23,42 -35,89 -35,140 0,52 12,99 36,141 23,42 55,76 94,101 39,24 82,36 129,36 46,0 89,-12 127,-36 39,-25 70,-59 92,-101 22,-42 34,-89 34,-141 0,-51 -12,-98 -34,-140 -22,-42 -53,-76 -92,-100 -38,-24 -81,-36 -127,-36z"/>
   <path id="6" class="fil8" d="M6547 9243l-137 -260 -5 0 -177 0 0 260 -245 0 0 -939 422 0c124,0 220,29 288,87 69,57 103,138 103,243 0,70 -14,131 -43,182 -29,52 -70,92 -125,120l196 307 -277 0zm-319 -455l178 0c50,0 89,-13 116,-38 27,-25 41,-61 41,-108 0,-46 -14,-81 -41,-105 -27,-25 -66,-37 -116,-37l-178 0 0 288z"/>
   <polygon id="7" class="fil8" points="6953,8304 7198,8304 7198,9243 6953,9243 "/>
   <path id="8" class="fil8" d="M8069 9243l-64 -166 -406 0 -65 166 -252 0 403 -939 252 0 393 939 -261 0zm-396 -354l260 0 -129 -334 -131 334z"/>
   <path id="9" class="fil8" d="M9401 9243l-64 -166 -406 0 -65 166 -252 0 403 -939 252 0 393 939 -261 0zm-396 -354l260 0 -129 -334 -131 334z"/>
   <polygon id="10" class="fil8" points="9747,8304 10013,8304 10285,8853 10556,8304 10822,8304 10822,9243 10605,9243 10604,8648 10364,9149 10206,9149 9965,8648 9965,9243 9747,9243 "/>
   <path id="11" class="fil8" d="M11450 8304c70,0 132,10 184,29 52,19 93,47 121,82 29,36 43,78 43,126 0,49 -14,92 -43,129 -29,36 -69,61 -119,75 60,11 107,39 141,81 35,43 52,95 52,156 0,52 -15,99 -44,138 -30,40 -72,70 -126,91 -55,21 -118,32 -192,32l-463 0 0 -939 446 0zm-13 374c33,0 60,-8 80,-25 20,-17 29,-39 29,-69 0,-29 -9,-51 -29,-66 -20,-16 -47,-23 -80,-22l-188 0 0 182 188 0zm0 375c42,0 76,-9 101,-27 25,-18 38,-43 38,-75 0,-30 -13,-53 -38,-70 -25,-18 -59,-26 -101,-25l-188 0 0 197 188 0z"/>
   <polygon id="12" class="fil8" points="11963,8304 12208,8304 12208,9243 11963,9243 "/>
   <polygon id="13" class="fil8" points="12390,8304 13130,8304 13130,8500 12635,8500 12635,8675 13082,8675 13082,8869 12635,8871 12635,9047 13144,9047 13144,9243 12390,9243 "/>
   <polygon id="14" class="fil8" points="13935,8304 14163,8304 14163,9243 13948,9243 13523,8682 13523,9243 13294,9243 13294,8304 13509,8304 13936,8869 "/>
   <polygon id="15" class="fil8" points="14264,8304 15069,8304 15069,8506 14788,8506 14788,9243 14543,9243 14543,8506 14264,8506 "/>
   <path id="16" class="fil8" d="M15757 9243l-64 -166 -406 0 -65 166 -252 0 403 -939 252 0 393 939 -261 0zm-396 -354l260 0 -129 -334 -131 334z"/>
   <polygon id="17" class="fil8" points="16103,8304 16348,8304 16348,9034 16745,9034 16745,9243 16103,9243 "/>
  </g>
 </g>
</svg>
