<?xml version="1.0" encoding="UTF-8"?>
<!DOCTYPE svg PUBLIC "-//W3C//DTD SVG 1.1//EN" "http://www.w3.org/Graphics/SVG/1.1/DTD/svg11.dtd">
<!-- Creator: CorelDRAW X7 -->
<svg xmlns="http://www.w3.org/2000/svg" xml:space="preserve" width="185.208mm" height="95.25mm" version="1.1" style="shape-rendering:geometricPrecision; text-rendering:geometricPrecision; image-rendering:optimizeQuality; fill-rule:evenodd; clip-rule:evenodd"
viewBox="0 0 18521 9525"
 xmlns:xlink="http://www.w3.org/1999/xlink">
 <defs>
  <style type="text/css">
   <![CDATA[
    .fil6 {fill:#333333}
    .fil3 {fill:#333333}
    .fil1 {fill:#660066}
    .fil0 {fill:#990099}
    .fil2 {fill:#FDFDFD}
    .fil4 {fill:#333333;fill-rule:nonzero}
    .fil5 {fill:#333333;fill-rule:nonzero}
    .fil7 {fill:#990099;fill-rule:nonzero}
   ]]>
  </style>
 </defs>
 <g id="Camada_x0020_1">
  <metadata id="CorelCorpID_0Corel-Layer"/>
  <g id="_2945214189744">
   <g>
    <g>
     <path class="fil0" d="M14990 612c1078,682 1214,1628 1384,2750 179,1186 -667,-177 -1395,26 -136,35 -327,150 -455,171 -385,62 -1032,-170 -1178,-562 -143,-388 152,-859 309,-1128 286,-492 217,-603 259,-1222 41,-593 749,-242 1076,-35z"/>
     <path class="fil1" d="M14194 4150c77,81 368,115 581,272 418,309 -110,792 -368,997 -165,131 -367,219 -439,300 -147,166 -948,408 -1151,304 -71,-200 297,-310 431,-417 191,-151 329,-314 113,-566 -390,-455 -89,-868 507,-915 87,-12 319,18 326,25z"/>
     <path class="fil0" d="M15407 6079c109,-635 592,-1144 1052,-1368 61,-34 225,-96 301,-128 240,-99 429,63 279,397 -134,295 -599,732 -862,895 -355,208 -472,231 -770,204z"/>
     <path class="fil2" d="M15586 4187c-182,97 -424,-97 -543,-183 112,-4 212,8 318,26 228,40 220,54 225,157z"/>
     <path class="fil3" d="M15477 6079c300,-170 884,-904 1060,-1372 39,-103 125,-289 143,-416 -517,177 -1405,1471 -1565,2006 116,-33 286,-175 362,-218zm179 -1892c68,-77 3,-117 -225,-157 -106,-18 -206,-30 -318,-26 119,86 406,338 543,183zm1140 283c-137,382 -173,401 -218,499 -115,252 -380,656 -563,837 -230,228 -776,723 -1097,684 -22,-379 930,-1883 1684,-2320 98,-57 117,-42 145,-157 35,-144 45,-411 48,-567 14,-796 -119,-1454 -438,-2043 -230,-423 -999,-1265 -1368,-765 -81,109 -190,548 -290,754 -236,490 -368,452 -579,626 -439,362 36,1079 330,1400 654,704 823,282 1248,563 112,74 134,220 17,318 -138,115 -282,41 -399,-18 -513,-257 -308,-332 -685,-240 -123,29 -263,65 -367,109 -287,85 -731,281 -610,641 115,343 445,502 335,986 -61,266 -122,321 -295,505 -93,99 -499,310 -425,400 173,213 854,-636 1001,-783 133,-134 857,-864 1081,-671 -32,165 -215,73 -597,386 -451,371 -1315,1635 -1604,1130 -156,-273 486,-380 682,-927 127,-353 -159,-657 -278,-928 -218,-493 116,-635 384,-764 101,-49 260,-93 375,-131 107,-36 319,-72 402,-110 -65,-105 -343,-304 -609,-698 -252,-372 -461,-949 -95,-1250 122,-100 223,-126 346,-257 249,-266 382,-886 554,-1196 79,-142 159,-297 481,-173 833,320 1355,1340 1492,2261 84,563 24,908 2,1449 8,135 16,154 12,159 -45,56 -49,143 -102,291z"/>
     <path class="fil3" d="M15047 3360c149,-35 30,-331 200,-399 701,-280 977,1088 1133,1343 -60,-327 -42,-838 -443,-1260 -391,-412 -858,-377 -978,48 -32,112 -61,303 88,268z"/>
     <path class="fil3" d="M16670 4263c406,-94 805,-205 968,-595 221,-526 -334,-812 -516,-575 91,134 100,32 244,60 192,37 313,356 21,657 -145,150 -367,246 -561,290 -132,41 -211,65 -215,58l59 105z"/>
     <path class="fil3" d="M17978 3686c69,-24 164,7 159,119 -21,508 -910,366 -995,511 84,199 983,-43 1100,-383 76,-221 -159,-451 -356,-352 -149,74 -150,198 -102,272 47,75 71,45 102,-21 31,-67 -68,-91 92,-146z"/>
    </g>
    <polygon class="fil4" points="309,2645 309,4353 606,4353 606,2645 "/>
    <polygon id="1" class="fil4" points="2446,3128 2446,4353 2743,4353 2743,2645 2424,2645 1904,3453 1384,2645 1065,2645 1065,4353 1363,4353 1363,3133 1897,3933 1906,3933 "/>
    <path id="2" class="fil4" d="M4504 3219c0,-88 -15,-167 -45,-237 -30,-70 -73,-130 -129,-181 -56,-50 -125,-89 -205,-115 -81,-27 -170,-41 -270,-41l-673 0 0 1708 298 0 0 -549 340 0c94,0 183,-13 266,-38 83,-25 156,-62 218,-111 62,-49 110,-110 147,-183 35,-73 53,-157 53,-253zm-305 6c0,93 -33,168 -99,224 -66,56 -156,84 -270,84l-350 0 0 -617 350 0c112,0 202,26 269,77 67,52 100,129 100,232z"/>
    <path id="3" class="fil4" d="M5524 2633l-278 0 -751 1720 307 0 175 -412 808 0 173 412 317 0 -751 -1720zm151 1042l-588 0 293 -683 295 683z"/>
    <path id="4" class="fil4" d="M7949 4080l-193 -196c-73,69 -147,123 -222,163 -75,40 -164,59 -268,59 -82,0 -157,-15 -226,-47 -69,-32 -129,-75 -179,-131 -51,-55 -90,-120 -117,-194 -28,-74 -42,-153 -42,-237 0,-85 14,-164 42,-237 27,-73 66,-137 117,-191 50,-55 110,-98 179,-130 69,-31 144,-47 226,-47 97,0 184,19 261,58 76,39 148,90 217,154l192 -222c-40,-39 -83,-75 -129,-107 -46,-33 -95,-61 -149,-85 -53,-23 -112,-41 -177,-54 -64,-13 -135,-20 -213,-20 -130,0 -249,23 -356,70 -108,46 -200,109 -278,190 -78,80 -139,174 -182,282 -43,107 -65,222 -65,344 0,123 22,239 66,346 44,107 105,200 182,279 77,79 169,141 274,187 106,45 222,68 347,68 79,0 152,-7 218,-21 66,-13 127,-34 182,-61 55,-26 107,-58 155,-95 48,-36 94,-78 138,-125z"/>
    <polygon id="5" class="fil4" points="8985,2923 9527,2923 9527,2645 8141,2645 8141,2923 8683,2923 8683,4353 8985,4353 "/>
    <path id="6" class="fil4" d="M11461 3497c0,-121 -22,-235 -66,-342 -44,-107 -105,-201 -183,-280 -78,-80 -171,-143 -280,-189 -109,-47 -230,-70 -361,-70 -132,0 -252,24 -361,71 -109,47 -204,111 -283,191 -80,81 -142,175 -186,282 -44,107 -66,221 -66,342 0,120 22,234 66,341 44,107 105,201 183,281 78,79 172,142 281,189 109,46 229,69 361,69 132,0 252,-23 361,-71 109,-47 203,-111 283,-191 79,-81 141,-175 185,-282 44,-107 66,-221 66,-341zm-315 5c0,82 -14,161 -42,235 -29,74 -68,138 -119,193 -50,54 -111,97 -181,129 -71,32 -149,47 -233,47 -85,0 -163,-16 -234,-48 -72,-33 -133,-77 -185,-132 -51,-55 -91,-120 -119,-194 -29,-74 -43,-152 -43,-235 0,-83 14,-162 43,-236 28,-74 68,-138 118,-192 51,-55 111,-98 182,-130 71,-31 148,-47 233,-47 84,0 162,16 234,48 72,33 133,77 184,132 51,55 91,120 120,194 28,74 42,153 42,236z"/>
    <path id="7" class="fil4" d="M12064 3092c0,-57 24,-106 73,-145 48,-40 117,-60 205,-60 78,0 155,15 231,45 77,30 154,74 232,130l161 -226c-88,-70 -182,-124 -282,-160 -100,-37 -212,-55 -338,-55 -84,0 -162,12 -233,35 -72,24 -133,58 -184,102 -50,43 -90,96 -120,157 -28,61 -43,129 -43,204 0,79 13,147 38,202 25,55 62,102 110,141 48,40 108,72 178,98 72,26 152,50 244,71 80,19 144,38 194,56 50,18 89,37 118,57 28,21 48,43 58,67 11,25 16,52 16,83 0,67 -27,120 -82,159 -54,39 -128,58 -220,58 -108,0 -204,-19 -288,-57 -85,-38 -168,-93 -251,-165l-181 215c103,93 214,161 334,206 121,45 247,67 378,67 90,0 172,-11 247,-34 74,-23 138,-56 191,-100 53,-44 95,-98 125,-161 30,-63 45,-136 45,-217 0,-72 -12,-134 -36,-187 -23,-52 -58,-99 -104,-139 -45,-40 -103,-73 -172,-101 -69,-28 -149,-53 -238,-76 -82,-19 -149,-38 -202,-56 -53,-18 -95,-37 -125,-58 -30,-21 -51,-44 -62,-68 -12,-25 -17,-54 -17,-88z"/>
    <path class="fil5" d="M1001 5283c0,-49 -9,-93 -25,-131 -17,-39 -41,-73 -72,-101 -32,-28 -70,-50 -115,-65 -44,-15 -94,-22 -150,-22l-375 0 0 951 166 0 0 -305 189 0c53,0 102,-7 149,-22 46,-14 86,-34 121,-61 35,-28 62,-62 82,-102 20,-41 30,-88 30,-142zm-170 4c0,52 -18,93 -55,125 -37,31 -87,47 -151,47l-195 0 0 -344 195 0c63,0 113,14 150,43 37,28 56,71 56,129z"/>
    <path id="1" class="fil5" d="M2125 5438c0,-67 -13,-130 -37,-190 -24,-60 -58,-112 -102,-156 -43,-45 -96,-80 -156,-106 -61,-25 -128,-38 -201,-38 -74,0 -141,13 -201,39 -61,26 -114,62 -158,107 -45,45 -79,97 -103,157 -25,60 -37,123 -37,190 0,67 12,130 37,190 24,60 58,112 101,157 44,44 96,79 157,105 60,26 128,39 201,39 73,0 140,-14 201,-40 61,-26 113,-62 158,-106 44,-45 79,-98 103,-157 24,-60 37,-124 37,-191zm-176 3c0,46 -8,90 -23,131 -16,41 -38,77 -66,108 -28,30 -62,54 -102,72 -39,17 -82,26 -129,26 -47,0 -91,-9 -131,-27 -40,-18 -74,-43 -102,-74 -29,-30 -51,-66 -67,-108 -16,-41 -24,-85 -24,-131 0,-46 8,-90 24,-131 16,-41 38,-77 66,-107 28,-31 62,-55 101,-72 40,-18 83,-27 130,-27 47,0 91,9 130,27 40,19 74,43 103,74 29,31 51,67 67,108 15,41 23,85 23,131z"/>
    <path id="2" class="fil5" d="M2460 5213c0,-32 14,-59 41,-81 27,-22 65,-33 114,-33 44,0 87,8 129,25 43,16 86,41 129,72l90 -126c-49,-39 -101,-69 -157,-89 -55,-20 -118,-31 -188,-31 -47,0 -91,7 -130,20 -40,13 -74,32 -102,57 -29,24 -51,53 -67,87 -16,34 -24,72 -24,114 0,44 7,82 21,112 14,31 34,58 61,79 27,22 60,40 99,55 40,14 85,27 136,39 45,11 81,21 108,31 28,10 50,21 66,32 16,12 27,24 32,38 6,13 9,29 9,46 0,37 -15,66 -45,88 -31,22 -72,33 -123,33 -60,0 -113,-11 -161,-32 -47,-21 -93,-52 -140,-92l-100 120c57,51 119,90 186,115 67,24 137,37 211,37 50,0 95,-6 137,-19 41,-13 77,-31 107,-56 29,-24 52,-54 69,-90 17,-35 25,-75 25,-120 0,-40 -6,-75 -20,-104 -13,-30 -32,-56 -58,-78 -25,-22 -57,-41 -96,-56 -38,-16 -83,-30 -132,-42 -46,-11 -83,-22 -113,-32 -29,-10 -52,-21 -69,-32 -17,-12 -29,-25 -35,-38 -6,-14 -10,-30 -10,-49z"/>
    <polygon id="3" class="fil5" points="3200,4964 3200,5915 3365,5915 3365,4964 "/>
    <polygon id="4" class="fil5" points="4023,5119 4325,5119 4325,4964 3553,4964 3553,5119 3855,5119 3855,5915 4023,5915 "/>
    <polygon id="5" class="fil5" points="4511,4964 4511,5915 4677,5915 4677,4964 "/>
    <polygon id="6" class="fil5" points="5322,5695 5036,4964 4851,4964 5246,5922 5393,5922 5789,4964 5608,4964 "/>
    <path id="7" class="fil5" d="M6846 5438c0,-67 -12,-130 -37,-190 -24,-60 -58,-112 -102,-156 -43,-45 -95,-80 -156,-106 -61,-25 -128,-38 -201,-38 -74,0 -141,13 -201,39 -61,26 -114,62 -158,107 -44,45 -79,97 -103,157 -25,60 -37,123 -37,190 0,67 12,130 37,190 24,60 58,112 102,157 43,44 95,79 156,105 61,26 128,39 201,39 74,0 141,-14 201,-40 61,-26 114,-62 158,-106 44,-45 79,-98 103,-157 25,-60 37,-124 37,-191zm-175 3c0,46 -8,90 -24,131 -16,41 -38,77 -66,108 -28,30 -62,54 -101,72 -40,17 -83,26 -130,26 -47,0 -91,-9 -131,-27 -39,-18 -74,-43 -102,-74 -29,-30 -51,-66 -67,-108 -16,-41 -24,-85 -24,-131 0,-46 8,-90 24,-131 16,-41 38,-77 66,-107 28,-31 62,-55 101,-72 40,-18 83,-27 130,-27 47,0 91,9 131,27 39,19 74,43 102,74 29,31 51,67 67,108 16,41 24,85 24,131z"/>
    <path id="8" class="fil5" d="M7182 5213c0,-32 13,-59 40,-81 28,-22 66,-33 115,-33 43,0 86,8 129,25 42,16 85,41 129,72l89 -126c-49,-39 -101,-69 -157,-89 -55,-20 -118,-31 -188,-31 -47,0 -90,7 -130,20 -40,13 -74,32 -102,57 -28,24 -51,53 -67,87 -16,34 -24,72 -24,114 0,44 7,82 21,112 14,31 34,58 61,79 27,22 60,40 100,55 39,14 84,27 135,39 45,11 81,21 109,31 27,10 49,21 65,32 16,12 27,24 33,38 6,13 9,29 9,46 0,37 -16,66 -46,88 -30,22 -71,33 -123,33 -60,0 -113,-11 -160,-32 -47,-21 -94,-52 -140,-92l-101 120c57,51 119,90 186,115 67,24 138,37 211,37 50,0 96,-6 137,-19 42,-13 77,-31 107,-56 30,-24 53,-54 69,-90 17,-35 25,-75 25,-120 0,-40 -6,-75 -19,-104 -14,-30 -33,-56 -58,-78 -26,-22 -58,-41 -96,-56 -39,-16 -83,-30 -133,-42 -46,-11 -83,-22 -113,-32 -29,-10 -52,-21 -69,-32 -17,-12 -29,-25 -35,-38 -6,-14 -9,-30 -9,-49z"/>
    <path class="fil6" d="M16084 6548c-2055,1152 -4778,524 -7421,5 -2642,-520 -5582,-226 -7831,-234 2232,246 4984,44 7626,599 2641,555 5954,1302 7626,-370z"/>
   </g>
   <path class="fil7" d="M625 7080c105,0 187,25 244,75 58,51 87,122 87,213 0,97 -29,172 -87,226 -57,54 -139,80 -244,80l-146 0 0 228 -215 0 0 -822 361 0zm-10 423c44,0 78,-11 101,-33 24,-22 36,-53 36,-95 0,-40 -12,-70 -36,-92 -23,-21 -57,-32 -101,-32l-136 0 0 252 136 0z"/>
   <path id="1" class="fil7" d="M1556 7902l-120 -228 -5 0 -154 0 0 228 -215 0 0 -822 369 0c109,0 193,25 253,75 60,51 90,122 90,213 0,62 -13,115 -38,160 -25,45 -61,80 -109,105l172 269 -243 0zm-279 -399l156 0c43,0 77,-11 101,-33 24,-22 36,-53 36,-95 0,-40 -12,-70 -36,-92 -24,-21 -58,-32 -101,-32l-156 0 0 252z"/>
   <path id="2" class="fil7" d="M1911 7080l649 0 0 171 -434 0 0 154 392 0 0 170 -392 1 0 155 446 0 0 171 -661 0 0 -822zm550 -66l-150 0 -69 -79 -70 79 -150 0 127 -180 185 0 127 180z"/>
   <polygon id="3" class="fil7" points="2703,7080 2937,7080 3175,7561 3412,7080 3645,7080 3645,7902 3455,7902 3454,7381 3244,7820 3106,7820 2894,7381 2894,7902 2703,7902 "/>
   <polygon id="4" class="fil7" points="3805,7080 4019,7080 4019,7902 3805,7902 "/>
   <path id="5" class="fil7" d="M4571 7067c83,0 159,18 227,55 67,37 121,87 159,151 39,64 58,136 58,216 0,81 -19,153 -58,218 -38,65 -92,116 -159,154 -68,37 -144,56 -227,56 -84,0 -160,-18 -227,-55 -68,-38 -121,-89 -160,-154 -38,-65 -58,-138 -58,-219 0,-80 20,-152 58,-216 39,-64 92,-114 160,-151 67,-37 143,-55 227,-55zm2 182c-41,0 -78,10 -113,31 -35,21 -62,50 -83,88 -20,37 -30,78 -30,122 0,46 10,87 31,124 21,37 48,66 83,88 34,21 71,32 112,32 41,0 78,-11 112,-32 34,-22 61,-51 81,-88 19,-37 29,-78 29,-124 0,-44 -10,-85 -29,-122 -20,-38 -47,-67 -81,-88 -34,-21 -71,-31 -112,-31z"/>
   <path class="fil7" d="M1021 8623c-31,-38 -67,-69 -109,-92 -42,-22 -83,-34 -124,-34 -48,0 -91,12 -129,36 -39,23 -70,56 -92,97 -23,42 -34,88 -34,139 0,51 11,97 34,139 22,41 53,74 92,97 38,24 81,36 129,36 38,0 78,-10 120,-30 42,-19 80,-46 113,-80l143 154c-51,54 -111,96 -181,128 -71,32 -140,47 -209,47 -92,0 -176,-21 -251,-64 -75,-43 -134,-101 -177,-175 -43,-74 -64,-157 -64,-249 0,-91 21,-173 65,-247 44,-73 104,-130 180,-172 77,-42 162,-63 257,-63 69,0 138,14 206,43 68,29 125,69 173,119l-142 171z"/>
   <path id="1" class="fil7" d="M9408 8623c-30,-38 -66,-69 -108,-92 -42,-22 -84,-34 -125,-34 -47,0 -90,12 -129,36 -39,23 -70,56 -92,97 -22,42 -33,88 -33,139 0,51 11,97 33,139 22,41 53,74 92,97 39,24 82,36 129,36 38,0 79,-10 121,-30 42,-19 79,-46 112,-80l143 154c-51,54 -111,96 -181,128 -70,32 -140,47 -208,47 -93,0 -177,-21 -252,-64 -75,-43 -134,-101 -177,-175 -43,-74 -64,-157 -64,-249 0,-91 22,-173 66,-247 43,-73 103,-130 180,-172 76,-42 161,-63 256,-63 70,0 138,14 206,43 68,29 126,69 173,119l-142 171z"/>
   <path id="2" class="fil7" d="M1958 9243l-64 -166 -406 0 -66 166 -251 0 403 -939 251 0 394 939 -261 0zm-396 -353l259 0 -128 -335 -131 335z"/>
   <polygon id="3" class="fil7" points="2121,8304 2926,8304 2926,8507 2645,8507 2645,9243 2400,9243 2400,8507 2121,8507 "/>
   <polygon id="4" class="fil7" points="3025,8304 3766,8304 3766,8500 3270,8500 3270,8675 3717,8675 3717,8869 3270,8871 3270,9048 3779,9048 3779,9243 3025,9243 "/>
   <path id="5" class="fil7" d="M4550 8764l212 0 0 373c-50,37 -112,67 -184,89 -73,23 -142,34 -207,34 -95,0 -180,-21 -257,-63 -76,-43 -136,-101 -180,-175 -43,-74 -65,-157 -65,-249 0,-91 22,-173 67,-247 45,-74 107,-131 186,-173 79,-42 168,-63 265,-63 70,0 139,12 209,38 69,25 128,59 177,102l-140 172c-34,-32 -73,-58 -117,-77 -44,-18 -88,-28 -130,-28 -50,0 -95,12 -136,36 -40,24 -72,57 -95,99 -23,42 -35,89 -35,141 0,53 12,100 35,143 23,42 56,75 97,99 41,24 86,37 136,37 48,0 102,-16 162,-46l0 -242z"/>
   <path id="6" class="fil7" d="M5371 8290c96,0 182,21 259,63 77,42 138,99 182,172 44,74 67,156 67,247 0,92 -23,175 -67,249 -44,74 -105,132 -182,175 -77,43 -163,64 -259,64 -95,0 -182,-21 -259,-63 -77,-43 -138,-101 -182,-176 -44,-74 -66,-157 -66,-249 0,-91 22,-173 66,-247 44,-73 105,-130 182,-172 77,-42 164,-63 259,-63zm3 207c-47,0 -90,12 -129,36 -40,24 -72,58 -95,100 -23,43 -35,89 -35,140 0,52 12,99 36,141 23,43 55,76 94,101 39,24 82,37 129,37 46,0 89,-13 128,-37 38,-25 69,-58 91,-101 23,-42 34,-89 34,-141 0,-51 -11,-97 -34,-140 -22,-42 -53,-76 -91,-100 -39,-24 -82,-36 -128,-36z"/>
   <path id="7" class="fil7" d="M6564 9243l-136 -260 -6 0 -177 0 0 260 -245 0 0 -939 422 0c124,0 220,29 289,87 68,57 102,138 102,243 0,70 -14,131 -43,183 -28,51 -70,91 -124,119l195 307 -277 0zm-319 -455l179 0c49,0 88,-13 115,-38 28,-25 41,-61 41,-108 0,-46 -13,-81 -41,-105 -27,-25 -66,-37 -115,-37l-179 0 0 288z"/>
   <polygon id="8" class="fil7" points="6970,8304 7215,8304 7215,9243 6970,9243 "/>
   <path id="9" class="fil7" d="M8087 9243l-65 -166 -405 0 -66 166 -252 0 403 -939 252 0 394 939 -261 0zm-397 -353l260 0 -129 -335 -131 335z"/>
   <path id="10" class="fil7" d="M9885 8856c0,59 17,106 52,142 35,36 79,54 133,54 52,0 95,-18 127,-53 33,-36 49,-83 49,-143l0 -552 245 0 0 552c0,81 -17,152 -51,214 -35,61 -84,108 -148,141 -63,33 -138,49 -224,49 -86,0 -161,-16 -225,-49 -65,-33 -115,-80 -150,-141 -36,-62 -53,-133 -53,-214l0 -552 245 0 0 552z"/>
   <polygon id="11" class="fil7" points="10659,8304 10904,8304 10904,9034 11301,9034 11301,9243 10659,9243 "/>
   <polygon id="12" class="fil7" points="11331,8304 12136,8304 12136,8507 11854,8507 11854,9243 11609,9243 11609,8507 11331,8507 "/>
   <path id="13" class="fil7" d="M12464 8856c0,59 17,106 52,142 35,36 79,54 132,54 53,0 96,-18 128,-53 33,-36 49,-83 49,-143l0 -552 245 0 0 552c0,81 -17,152 -51,214 -35,61 -84,108 -148,141 -63,33 -138,49 -224,49 -86,0 -161,-16 -226,-49 -64,-33 -114,-80 -150,-141 -35,-62 -52,-133 -52,-214l0 -552 245 0 0 552z"/>
   <path id="14" class="fil7" d="M13801 9243l-136 -260 -6 0 -176 0 0 260 -245 0 0 -939 421 0c124,0 221,29 289,87 68,57 102,138 102,243 0,70 -14,131 -43,183 -28,51 -70,91 -124,119l195 307 -277 0zm-318 -455l178 0c50,0 88,-13 116,-38 27,-25 40,-61 40,-108 0,-46 -13,-81 -40,-105 -28,-25 -66,-37 -116,-37l-178 0 0 288z"/>
   <path id="15" class="fil7" d="M14897 9243l-65 -166 -405 0 -66 166 -252 0 403 -939 252 0 394 939 -261 0zm-397 -353l260 0 -129 -335 -131 335z"/>
   <polygon id="16" class="fil7" points="15242,8304 15487,8304 15487,9034 15885,9034 15885,9243 15242,9243 "/>
  </g>
 </g>
</svg>
