<?xml version="1.0" encoding="UTF-8"?>
<!DOCTYPE svg PUBLIC "-//W3C//DTD SVG 1.1//EN" "http://www.w3.org/Graphics/SVG/1.1/DTD/svg11.dtd">
<!-- Creator: CorelDRAW X7 -->
<svg xmlns="http://www.w3.org/2000/svg" xml:space="preserve" width="141.111mm" height="141.111mm" version="1.1" style="shape-rendering:geometricPrecision; text-rendering:geometricPrecision; image-rendering:optimizeQuality; fill-rule:evenodd; clip-rule:evenodd"
viewBox="0 0 14111 14111"
 xmlns:xlink="http://www.w3.org/1999/xlink">
 <defs>
  <style type="text/css">
   <![CDATA[
    .str0 {stroke:#333333;stroke-width:33.86}
    .str1 {stroke:black;stroke-width:146.31}
    .fil3 {fill:none}
    .fil2 {fill:#32A7DF}
    .fil1 {fill:#333333}
    .fil0 {fill:#33CC99}
   ]]>
  </style>
 </defs>
 <g id="Camada_x0020_1">
  <metadata id="CorelCorpID_0Corel-Layer"/>
  <g id="_1699355549232">
   <path class="fil0" d="M9804 9837l-3 -1974c234,48 482,193 651,310 505,350 445,1470 -648,1664zm-804 -3424c-124,-25 -266,-124 -355,-207 -100,-94 -175,-189 -202,-370l-8 -44c-33,-295 40,-561 199,-698 121,-104 399,-270 595,-297l-5 216 5 1502c-76,-8 -180,-51 -229,-102zm340 -3313c-62,97 -88,77 -110,239l-2 563c-103,30 -265,39 -375,63 -136,29 -225,52 -357,98 -96,27 -167,64 -260,110l-50 22c-58,39 -102,63 -167,108 -121,84 -186,159 -290,258 -42,42 -85,102 -121,154 -89,127 -128,213 -187,343 -51,257 -116,394 -120,695 -2,230 46,514 112,714 38,63 48,110 79,166 32,57 67,110 107,167l246 283c50,18 91,63 137,98 51,39 96,65 156,100 106,60 265,117 341,167l750 245c0,141 -4,289 -4,424 -15,564 13,1087 -16,1663 -296,-56 -572,-268 -744,-616 -172,-348 -125,-990 -869,-899 -62,28 -169,63 -224,104 -53,39 -136,129 -167,188 -99,187 -88,352 -48,569l91 280c83,181 295,520 419,633 111,101 364,305 478,360 65,25 82,48 143,75 46,20 97,43 150,66 109,46 197,70 317,105l468 87 19 746c37,122 69,197 208,220 445,72 351,-495 351,-981 335,-21 676,-119 972,-257 1069,-497 1461,-2097 653,-2988 -497,-471 -932,-620 -1625,-781l0 -1879c409,79 609,427 726,780 47,144 94,196 162,287 55,33 47,52 126,93 49,26 111,48 178,57 166,23 247,-7 382,-59 108,-103 309,-216 281,-547 -20,-249 -134,-454 -237,-622 -94,-152 -270,-340 -407,-455 -288,-243 -838,-422 -1211,-431 0,-166 19,-523 -23,-661 -57,-190 -232,-256 -438,-154z"/>
   <path class="fil1 str0" d="M9396 7877l-703 -229 -9 -6c-55,-37 -134,-68 -195,-95 -48,-22 -96,-44 -141,-70 -58,-33 -113,-65 -166,-106 -31,-23 -81,-74 -114,-86l-21 -7 -263 -303 -3 -4c-40,-56 -78,-113 -112,-173 -30,-54 -46,-112 -77,-165l-5 -8 -3 -9c-74,-222 -119,-507 -116,-741 2,-147 19,-277 53,-420 71,-300 76,-391 268,-665 40,-57 82,-118 133,-167 162,-155 320,-312 530,-404 90,-45 172,-86 269,-114 122,-42 239,-73 366,-100 98,-21 208,-26 307,-46l3 -503 0 -6c9,-67 21,-133 61,-190 20,-28 42,-53 62,-83l12 -20 21 -10c230,-113 478,-56 557,205 31,104 31,262 31,370 0,79 -3,157 -4,236 388,31 898,208 1180,446 148,124 324,311 425,475 127,208 229,413 249,660 13,151 -15,292 -106,416 -61,84 -129,131 -201,200l-12 11 -16 6c-158,61 -250,87 -424,64 -71,-10 -142,-32 -206,-66 -39,-21 -66,-40 -98,-71 -10,-10 -18,-17 -31,-24l-14 -9 -11 -13c-82,-110 -129,-175 -175,-311 -99,-300 -256,-591 -560,-697l0 1702c646,153 1097,312 1598,787l2 2 3 2c166,184 287,400 362,635 293,924 -149,2072 -1043,2487 -286,133 -605,227 -922,258 1,29 2,58 2,87 4,154 13,315 -2,469 -12,130 -44,279 -150,366 -85,71 -194,81 -299,64 -174,-28 -228,-123 -276,-278l-3 -11 -17 -690 -406 -75 -4 -1c-112,-33 -219,-63 -326,-109 -51,-22 -101,-43 -151,-66 -49,-22 -91,-55 -140,-74l-3 -1 -3 -1c-90,-43 -196,-125 -275,-187 -76,-60 -152,-122 -223,-187 -146,-132 -355,-478 -439,-660l-2 -5 -94 -289 -1 -6c-42,-226 -55,-414 56,-624 38,-71 127,-168 192,-216 68,-51 161,-78 239,-114l12 -5 13 -1c244,-30 485,5 651,204 88,106 139,237 179,366 38,122 69,262 125,376 122,247 323,461 588,546 20,-520 -2,-1039 12,-1556 -1,-121 3,-242 4,-363zm659 2083l-3 -1975c234,49 482,193 651,310 505,351 445,1471 -648,1665zm-804 -3424c-124,-25 -266,-124 -355,-208 -100,-93 -175,-189 -202,-370l-8 -43c-33,-295 39,-561 199,-698 121,-104 399,-270 595,-297l-5 216 5 1501c-76,-7 -180,-51 -229,-101zm340 -3313c-62,97 -88,77 -110,238l-2 564c-103,30 -265,39 -375,63 -136,29 -225,52 -357,98 -96,27 -167,64 -260,110l-50 22c-58,39 -103,63 -167,108 -121,84 -187,159 -290,258 -43,41 -85,102 -121,154 -89,127 -129,212 -187,343 -51,257 -116,394 -120,695 -2,230 46,514 112,714 38,62 48,110 79,166 32,57 67,110 107,166l246 284c50,17 91,63 137,98 50,39 96,65 156,100 106,60 265,117 341,167l750 245c0,141 -4,289 -4,424 -15,564 13,1087 -16,1663 -297,-56 -572,-268 -744,-616 -172,-348 -125,-991 -869,-900 -62,28 -169,64 -224,105 -53,39 -136,129 -167,188 -99,187 -88,352 -48,569l91 280c83,181 295,520 419,633 111,101 364,305 478,359 65,26 82,49 143,76 46,20 97,43 150,65 109,47 197,71 317,106l468 87 19 746c37,122 69,197 208,220 445,71 351,-495 351,-981 335,-22 676,-119 972,-257 1069,-497 1461,-2097 653,-2988 -497,-471 -932,-620 -1625,-781l0 -1879c409,79 609,427 726,780 47,143 93,196 162,287 55,33 47,51 126,93 49,26 111,48 178,57 166,22 247,-7 382,-59 108,-103 308,-217 281,-547 -20,-249 -134,-454 -237,-622 -94,-152 -270,-340 -407,-455 -289,-243 -838,-422 -1211,-431 0,-166 19,-524 -23,-661 -57,-190 -232,-256 -438,-154zm-196 3305l-5 -1393 3 -107c-158,51 -351,165 -453,253 -165,141 -192,420 -171,622l8 41 1 2c21,143 73,225 176,321 78,73 207,165 314,186l26 6 18 18c18,19 50,37 83,51zm744 3327c358,-89 661,-313 757,-690 71,-277 6,-629 -241,-800 -149,-103 -336,-212 -518,-270l2 1760z"/>
   <path class="fil2" d="M5652 2279c-1550,324 -2989,1539 -3494,3051 -27,81 -60,198 -86,281 -211,818 -221,1863 77,2668 36,96 66,186 101,272 33,82 92,193 113,274 52,88 105,191 167,303 59,106 131,200 188,305l410 506c220,254 602,573 890,755 87,54 141,94 229,143 72,40 166,77 242,125 382,215 1105,418 1619,457 340,25 655,27 993,-15 322,-40 559,-118 849,-184 169,-66 362,-115 500,-203l-528 -203c-130,-23 -319,-141 -419,-121 -166,32 -321,72 -498,91 -536,57 -1142,28 -1656,-155l-298 -106c-167,-63 -336,-145 -482,-228 -79,-44 -144,-95 -214,-136 -85,-51 -143,-104 -207,-143l-642 -592c-38,-42 -54,-68 -88,-107 -49,-56 -48,-63 -89,-123 -761,-996 -947,-2269 -635,-3478 40,48 20,44 87,41 30,-97 141,-269 280,-175 92,94 -119,200 98,493l84 110 111 126c96,36 261,-194 273,37 9,167 33,269 56,422 36,121 67,95 208,91 -34,58 -146,158 -69,261 48,91 138,172 279,185 75,7 109,-18 169,-40 75,-27 129,-28 209,-34 92,-37 102,-120 111,-248 15,-220 292,-287 356,-373 121,-162 -189,-436 -196,-445 -183,-246 -175,-325 -93,-490 54,-107 97,-76 231,-119 143,-47 128,-61 112,-215 -18,-62 -46,-103 -102,-146 -80,-62 -321,-12 -384,-310 76,-72 117,-101 244,-149l33 -9c298,-167 413,77 613,149l57 -140c122,31 161,230 184,336 18,87 150,238 282,251 110,-110 30,-323 86,-422 41,-56 72,-77 157,-95 55,60 58,94 175,96 252,3 109,31 233,36 18,-92 5,-80 -23,-166 -69,-114 15,-206 49,-311 -1,-93 -20,-149 -23,-244 -1,-77 7,-160 1,-236 -19,-208 -28,-220 194,-250l204 -57 15 -93 58 -303 -20 -100c-121,-32 -176,-7 -226,-115 36,-70 59,-66 113,-110 42,-35 58,-59 111,-93 248,39 454,69 684,146l492 174 86 -181c35,-90 118,-292 159,-355 -10,-40 28,-24 -119,-83 -53,-21 -102,-40 -154,-61 -95,-38 -196,-70 -305,-105 -701,-219 -1505,-252 -2222,-118z"/>
   <path class="fil2" d="M5946 6098c-23,36 -32,60 -50,87 38,84 20,271 -20,349 -14,82 -116,201 -162,261 -116,150 -64,117 -35,298 12,166 -86,225 -167,300 -150,138 -168,130 -173,284 9,54 3,58 38,114 279,81 463,-151 565,193 122,38 184,13 295,-40 139,-65 160,-38 268,-138l31 -98c-89,-113 -190,-72 -201,-268 -14,-254 353,-354 40,-611 -87,-71 -114,-201 -106,-334 -33,-66 -11,-56 -65,-120 -120,-143 -118,-180 -202,-288l-56 11z"/>
   <path class="fil2" d="M6825 6386c-64,18 -109,16 -171,35 -65,21 -71,43 -132,66l-40 36c43,123 191,454 187,560 76,71 23,137 144,176 127,-44 153,-94 220,-196 14,-72 13,-80 61,-125 15,-78 55,-116 45,-192 -94,-205 -17,-383 -314,-360z"/>
   <path class="fil3 str1" d="M5802 2543c717,-134 1521,-101 2221,118 110,34 211,67 306,105l154 61c147,59 109,43 119,83 -41,62 -124,265 -159,355l-86 180 -492 -174c-230,-76 -436,-107 -685,-145 -52,34 -68,57 -110,92 -54,45 -77,41 -113,111 50,108 105,82 226,114l20 101 -58 303 -15 93 -204 56c-222,30 -213,43 -195,251 7,75 -1,158 0,236 2,95 22,151 23,244 -34,105 -119,197 -49,311 28,86 40,74 23,165 -124,-5 18,-33 -233,-36 -117,-1 -120,-35 -175,-95 -85,18 -116,39 -158,95 -55,99 25,312 -85,421 -132,-13 -265,-163 -283,-250 -22,-106 -62,-305 -183,-336l-57 139c-200,-71 -315,-316 -613,-148l-33 9c-127,48 -168,76 -244,148 63,299 304,249 384,311 56,43 83,84 102,146 16,154 31,168 -112,214 -134,44 -177,13 -231,120 -83,165 -90,244 93,490 7,8 317,283 196,445 -64,86 -341,152 -356,373 -9,128 -19,211 -111,248 -80,6 -135,7 -209,34 -61,22 -94,47 -170,40 -140,-13 -231,-94 -278,-185 -77,-104 35,-203 69,-261 -141,4 -172,30 -208,-91 -23,-153 -47,-255 -56,-422 -12,-231 -177,-2 -273,-37l-111 -126 -84 -110c-217,-293 -6,-400 -98,-494 -139,-93 -250,79 -280,175 -67,4 -47,7 -87,-40 -315,1220 -122,2626 724,3601 220,253 483,471 730,699 64,39 122,92 207,143 70,41 135,91 214,136 146,83 315,165 482,228l298 106c514,183 1120,212 1656,155 177,-19 332,-59 498,-92 100,-20 289,99 419,122l527 203c-137,88 -330,137 -499,203 -290,65 -527,143 -849,184 -338,42 -653,40 -993,14 -514,-39 -1237,-241 -1619,-456 -76,-48 -170,-86 -242,-126 -88,-48 -142,-88 -229,-143 -288,-182 -670,-500 -890,-755 -214,-263 -433,-513 -598,-811 -62,-111 -115,-215 -167,-302 -21,-81 -80,-192 -113,-274 -35,-86 -65,-176 -101,-273 -298,-804 -288,-1849 -77,-2667 26,-84 59,-200 86,-281 502,-1503 1948,-2728 3494,-3051zm293 3819l57 -11c84,108 82,145 201,287 55,65 33,55 65,121 -7,133 20,263 106,334 314,256 -53,357 -39,611 11,196 112,155 201,267l-31 99c-108,100 -129,73 -268,138 -111,52 -173,78 -296,40 -101,-344 -285,-112 -564,-193 -35,-57 -29,-61 -38,-114 5,-154 22,-146 173,-285 81,-74 179,-133 167,-299 -29,-182 -82,-148 35,-299 46,-59 148,-178 162,-260 40,-78 58,-265 20,-349 18,-27 27,-51 49,-87zm709 323c61,-20 107,-17 171,-36 297,-22 220,155 314,360 10,76 -30,114 -45,192 -48,45 -47,54 -61,126 -67,102 -94,151 -220,196 -121,-39 -68,-105 -144,-176 3,-106 -144,-437 -187,-560l40 -36c61,-23 67,-45 132,-66z"/>
  </g>
 </g>
</svg>
