<?xml version="1.0" encoding="UTF-8"?>
<!DOCTYPE svg PUBLIC "-//W3C//DTD SVG 1.1//EN" "http://www.w3.org/Graphics/SVG/1.1/DTD/svg11.dtd">
<!-- Creator: CorelDRAW X7 -->
<svg xmlns="http://www.w3.org/2000/svg" xml:space="preserve" width="141.111mm" height="141.111mm" version="1.1" style="shape-rendering:geometricPrecision; text-rendering:geometricPrecision; image-rendering:optimizeQuality; fill-rule:evenodd; clip-rule:evenodd"
viewBox="0 0 14111 14111"
 xmlns:xlink="http://www.w3.org/1999/xlink">
 <defs>
  <style type="text/css">
   <![CDATA[
    .str0 {stroke:#333333;stroke-width:179.06;stroke-linecap:round;stroke-linejoin:round}
    .fil1 {fill:none}
    .fil0 {fill:#32A7DF}
   ]]>
  </style>
 </defs>
 <g id="Camada_x0020_1">
  <metadata id="CorelCorpID_0Corel-Layer"/>
  <g id="_1699189844256">
   <path class="fil0" d="M9815 4642c0,1536 -1305,2780 -2914,2780 -1610,0 -2915,-1244 -2915,-2779 0,-1536 1305,-2780 2915,-2780 1609,0 2914,1244 2914,2779z"/>
   <path class="fil1 str0" d="M5313 10099l-1223 -740c-381,-234 -879,-116 -1113,265l0 0c-134,217 -67,501 151,635l1029 636 1365 841c1045,644 2481,665 3504,153 0,0 963,-538 2177,-375l0 -2429 -924 -512c-1031,-576 -2349,403 -2349,403 -502,331 -926,545 -1511,656 -217,41 -485,38 -684,126 -248,110 -448,297 -510,568 -44,190 38,427 202,538 222,150 555,97 802,65 609,-78 1208,-244 1778,-470 8,-3 15,-6 22,-9"/>
   <path class="fil1 str0" d="M5790 9737l-1328 -778c-337,-208 -777,-103 -985,233l-36 79"/>
   <path class="fil1 str0" d="M6557 9605l-1519 -896c-305,-188 -695,-120 -920,144"/>
   <path class="fil1 str0" d="M4415 5121c0,-1553 1259,-2813 2813,-2813 1553,0 2812,1260 2812,2813 0,1554 -1259,2813 -2812,2813 -1554,0 -2813,-1259 -2813,-2813z"/>
   <line class="fil1 str0" x1="7228" y1="2308" x2="7228" y2= "7934" />
   <path class="fil1 str0" d="M6631 2370c0,0 -2179,2694 0,5502"/>
   <path class="fil1 str0" d="M7824 2370c0,0 2179,2694 0,5502"/>
   <path class="fil1 str0" d="M4415 5073c0,0 2428,1324 5621,-56"/>
   <path class="fil1 str0" d="M4974 3438c0,0 1930,1026 4507,0"/>
   <path class="fil1 str0" d="M4974 6769c0,0 1930,1026 4507,0"/>
  </g>
 </g>
</svg>
