<?xml version="1.0" encoding="UTF-8"?>
<!DOCTYPE svg PUBLIC "-//W3C//DTD SVG 1.1//EN" "http://www.w3.org/Graphics/SVG/1.1/DTD/svg11.dtd">
<!-- Creator: CorelDRAW X7 -->
<svg xmlns="http://www.w3.org/2000/svg" xml:space="preserve" width="141.111mm" height="141.111mm" version="1.1" style="shape-rendering:geometricPrecision; text-rendering:geometricPrecision; image-rendering:optimizeQuality; fill-rule:evenodd; clip-rule:evenodd"
viewBox="0 0 14111 14111"
 xmlns:xlink="http://www.w3.org/1999/xlink">
 <defs>
  <style type="text/css">
   <![CDATA[
    .str0 {stroke:#333333;stroke-width:182.86}
    .fil1 {fill:none}
    .fil0 {fill:#FFCC00}
   ]]>
  </style>
 </defs>
 <g id="Camada_x0020_1">
  <metadata id="CorelCorpID_0Corel-Layer"/>
  <g id="_1699100051664">
   <path class="fil0" d="M8760 2863c237,-520 604,-284 676,-183 162,227 -51,602 -135,829 -101,275 -196,529 -307,791 -77,183 -687,1422 -602,1515 132,145 364,-328 556,-598 171,-240 333,-491 500,-735 82,-118 189,-295 273,-348 207,-128 681,-1 337,544 -361,571 -854,1390 -1068,2019 -189,558 -445,1314 -758,1716 4,-224 41,-481 46,-710 5,-246 -174,-432 -369,-269 -292,243 29,1106 -499,1106 -379,-515 -384,-1181 -904,-2039 -39,-65 -142,-265 -180,-302 -114,-110 -245,-61 -321,61 -70,294 522,1328 427,1522 -134,-17 -92,2 -153,-164 -36,-100 -55,-145 -99,-242 -80,-179 -142,-314 -226,-461 -264,-462 -315,-734 -632,-712 -153,190 -144,186 -40,426l660 1379c-94,-58 -550,-887 -668,-1099 -107,-191 -88,-272 -360,-259 -177,189 -134,210 -27,442 160,345 689,1310 694,1445 -168,-25 -376,-356 -528,-549 -298,-377 -335,-502 -569,-347 -42,214 6,203 192,451 605,807 506,945 993,1751 316,525 492,735 585,1467 -155,158 -1053,690 -1287,817 82,-1041 292,-2317 -323,-3387 -582,-1012 -820,-2670 -996,-3982 -46,-343 123,-575 449,-552 461,33 465,989 594,1402 251,806 602,598 844,-100 399,-1152 367,-1843 991,-3022 106,-201 215,-538 387,-616 291,-131 533,116 468,438 -104,506 -288,1080 -422,1568 -59,213 -247,697 -156,786 172,164 314,-490 358,-615 93,-264 762,-1893 911,-2072 158,-191 540,-184 645,94 157,417 -923,2415 -1038,2921 113,-22 62,-22 195,-297l540 -1107c115,-240 252,-515 346,-723z"/>
   <path class="fil1 str0" d="M9051 3013c237,-520 605,-285 677,-184 162,228 -51,602 -135,830 -102,275 -197,529 -307,790 -78,184 -687,1422 -602,1515 131,145 363,-327 555,-598 171,-240 333,-490 501,-734 81,-118 188,-296 272,-348 208,-128 682,-2 337,543 -361,572 -854,1391 -1067,2019 -189,558 -446,1314 -758,1717 3,-224 40,-482 45,-711 5,-245 -174,-431 -369,-269 -292,243 29,1107 -499,1106 -379,-514 -384,-1181 -904,-2039 -39,-64 -142,-265 -180,-301 -114,-111 -245,-62 -320,60 -71,295 522,1329 426,1523 -134,-17 -91,2 -152,-165 -37,-99 -56,-145 -100,-241 -80,-179 -141,-314 -226,-462 -263,-461 -315,-734 -631,-712 -154,190 -145,187 -41,426l660 1379c-94,-57 -549,-887 -668,-1099 -106,-191 -88,-271 -360,-259 -176,189 -134,210 -26,443 159,344 688,1309 693,1445 -168,-25 -376,-356 -528,-549 -298,-378 -335,-503 -569,-348 -41,215 6,204 192,452 605,807 507,945 993,1751 316,524 492,734 585,1467 -155,158 -1052,689 -1287,817 82,-1041 293,-2318 -323,-3388 -582,-1012 -820,-2669 -996,-3981 -46,-343 124,-576 449,-552 461,33 465,989 594,1402 252,806 602,597 844,-100 399,-1153 368,-1844 991,-3022 106,-201 215,-539 387,-616 291,-131 534,115 468,437 -104,507 -287,1080 -422,1569 -58,213 -247,697 -155,785 171,165 314,-490 357,-614 93,-265 762,-1894 911,-2073 158,-190 541,-183 645,94 157,417 -922,2416 -1037,2922 112,-22 61,-23 195,-298l539 -1107c115,-239 252,-515 346,-722z"/>
  </g>
 </g>
</svg>
