<?xml version="1.0" encoding="UTF-8"?>
<!DOCTYPE svg PUBLIC "-//W3C//DTD SVG 1.1//EN" "http://www.w3.org/Graphics/SVG/1.1/DTD/svg11.dtd">
<!-- Creator: CorelDRAW X7 -->
<svg xmlns="http://www.w3.org/2000/svg" xml:space="preserve" width="228.6mm" height="98.7776mm" version="1.1" style="shape-rendering:geometricPrecision; text-rendering:geometricPrecision; image-rendering:optimizeQuality; fill-rule:evenodd; clip-rule:evenodd"
viewBox="0 0 22860 9878"
 xmlns:xlink="http://www.w3.org/1999/xlink">
 <defs>
  <style type="text/css">
   <![CDATA[
    .fil2 {fill:#32A7DF}
    .fil0 {fill:#333333}
    .fil4 {fill:#333333}
    .fil3 {fill:#33CC99}
    .fil1 {fill:#FFCC00}
   ]]>
  </style>
 </defs>
 <g id="Camada_x0020_1">
  <metadata id="CorelCorpID_0Corel-Layer"/>
  <g id="_1922534956992">
   <path class="fil0" d="M19671 8365c-2625,1471 -6103,670 -9479,6 -3375,-664 -7130,-288 -10003,-299 2851,314 6367,56 9741,765 3374,709 7605,1663 9741,-472z"/>
   <path class="fil1" d="M18364 661c1421,899 1601,2147 1825,3626 236,1563 -880,-233 -1840,34 -179,46 -431,198 -600,225 -507,82 -1361,-224 -1552,-740 -190,-512 199,-1132 406,-1488 378,-648 287,-794 343,-1611 53,-783 987,-319 1418,-46z"/>
   <path class="fil2" d="M17314 5326c102,107 485,152 766,359 552,408 -144,1045 -485,1315 -217,172 -483,288 -579,395 -194,218 -1250,538 -1517,401 -94,-264 391,-409 568,-550 252,-200 433,-415 149,-746 -515,-601 -118,-1145 668,-1207 115,-15 421,23 430,33z"/>
   <path class="fil3" d="M18913 7870c145,-837 781,-1509 1388,-1804 80,-46 296,-127 397,-169 316,-131 566,83 367,523 -176,389 -790,966 -1136,1181 -468,275 -623,304 -1016,269z"/>
   <path class="fil4" d="M19005 7870c396,-225 1167,-1192 1399,-1809 51,-137 164,-382 189,-549 -683,234 -1854,1939 -2065,2645 154,-43 378,-230 477,-287zm237 -2495c90,-102 4,-155 -296,-207 -141,-24 -272,-40 -420,-35 157,114 535,446 716,242zm1504 372c-181,505 -229,530 -288,659 -152,332 -502,865 -743,1104 -303,300 -1023,952 -1446,902 -30,-500 1226,-2483 2221,-3059 129,-75 154,-57 190,-207 46,-191 60,-543 64,-749 18,-1049 -157,-1916 -578,-2693 -303,-559 -1318,-1668 -1804,-1008 -106,143 -250,721 -381,993 -312,646 -486,597 -764,826 -579,478 47,1423 435,1846 862,928 1085,372 1645,742 148,98 177,291 23,420 -182,151 -371,54 -526,-24 -677,-338 -406,-438 -904,-317 -162,39 -347,86 -484,144 -378,112 -964,371 -804,845 152,452 587,663 442,1300 -80,351 -161,424 -389,666 -122,130 -658,409 -561,528 229,280 1126,-839 1320,-1033 176,-176 1131,-1139 1425,-884 -42,217 -282,96 -786,509 -595,488 -1735,2156 -2116,1490 -206,-360 642,-501 900,-1222 167,-466 -209,-868 -367,-1225 -288,-649 153,-837 506,-1007 134,-64 344,-122 496,-173 140,-47 420,-95 529,-144 -86,-139 -453,-402 -803,-921 -332,-491 -608,-1252 -125,-1648 161,-132 294,-167 456,-340 329,-350 504,-1168 731,-1576 104,-188 209,-392 634,-229 1099,423 1787,1767 1968,2983 110,742 31,1196 2,1910 11,177 21,203 16,210 -60,74 -64,188 -134,382z"/>
   <path class="fil4" d="M18439 4285c197,-46 40,-437 263,-527 926,-369 1289,1435 1495,1772 -80,-432 -55,-1106 -584,-1663 -516,-543 -1131,-497 -1290,63 -42,149 -80,401 116,355z"/>
   <path class="fil4" d="M20579 5475c536,-124 1061,-270 1277,-784 291,-694 -441,-1072 -681,-758 121,176 132,42 322,79 253,49 412,468 27,866 -191,198 -483,325 -739,383 -174,53 -278,85 -283,76l77 138z"/>
   <path class="fil4" d="M22304 4714c91,-32 216,9 210,157 -28,670 -1200,483 -1313,674 112,263 1297,-56 1451,-505 100,-292 -209,-594 -470,-465 -196,98 -197,262 -134,360 62,98 94,59 134,-29 41,-87 -89,-119 122,-192z"/>
  </g>
 </g>
</svg>
