<?xml version="1.0" encoding="UTF-8"?>
<!DOCTYPE svg PUBLIC "-//W3C//DTD SVG 1.1//EN" "http://www.w3.org/Graphics/SVG/1.1/DTD/svg11.dtd">
<!-- Creator: CorelDRAW X7 -->
<svg xmlns="http://www.w3.org/2000/svg" xml:space="preserve" width="98.7776mm" height="98.7776mm" version="1.1" style="shape-rendering:geometricPrecision; text-rendering:geometricPrecision; image-rendering:optimizeQuality; fill-rule:evenodd; clip-rule:evenodd"
viewBox="0 0 9878 9878"
 xmlns:xlink="http://www.w3.org/1999/xlink">
 <defs>
  <style type="text/css">
   <![CDATA[
    .fil0 {fill:none}
    .fil7 {fill:black}
    .fil6 {fill:#32A7DF}
    .fil1 {fill:#33CC99}
    .fil5 {fill:#558B30}
    .fil3 {fill:#CCD5DA}
    .fil4 {fill:#CFD8DC}
    .fil2 {fill:#FEFEFE}
   ]]>
  </style>
 </defs>
 <g id="Camada_x0020_1">
  <metadata id="CorelCorpID_0Corel-Layer"/>
  <rect class="fil0" width="9878" height="9878"/>
  <g id="_1851953187760">
   <path class="fil1" d="M7187 5296c36,-85 31,-456 22,-563 -17,-202 -64,-347 -94,-525 -452,33 -751,-176 -931,-405 -191,-244 -290,-682 -126,-1025 -69,-36 -169,-114 -250,-136 -84,100 -160,208 -199,383 -136,621 438,819 392,1280 -14,134 -116,293 -212,367 -98,77 -249,136 -370,201 -238,127 -363,284 -202,516 165,240 349,360 390,763 11,110 -60,442 161,393 51,-11 128,-88 160,-119 342,-337 217,-444 311,-843 19,-79 44,-146 75,-216 85,-190 285,-359 530,-295 198,51 261,195 343,224z"/>
   <path class="fil1" d="M3706 2675c3,232 29,314 -53,538 -58,158 -146,276 -239,368 -278,275 -540,312 -905,291 -146,185 -240,774 -240,1049 0,273 93,863 240,1049 293,-16 184,2 371,2 477,-601 -109,-920 477,-1405 119,-98 238,-180 357,-273 66,-51 122,-92 186,-142 242,-189 -67,-309 -47,-725 10,-218 133,-310 221,-425 113,-149 47,-359 -60,-449 -78,15 -249,83 -308,122z"/>
   <path class="fil1" d="M4423 6935c-393,29 -476,-263 -680,-229 -3,21 31,180 35,230 7,93 -6,159 -10,248 185,150 802,247 1083,240 -11,-52 -109,-273 -138,-330 -99,-201 -108,-172 -290,-159z"/>
   <path class="fil2" d="M7160 3990l25 -21c4,-3 14,-8 17,-9 140,-82 137,-132 207,-165 60,-173 -70,-401 -176,-448 -36,-15 -163,49 -276,35 -134,-18 -123,-85 -228,9 -110,97 -182,318 -85,498 63,117 383,138 516,101z"/>
   <path class="fil2" d="M2997 7825l43 -29c13,-7 30,-15 38,-21 123,-79 121,-126 191,-159 68,-182 -107,-424 -191,-441 -38,-8 -158,53 -269,38 -133,-19 -121,-84 -227,18 -109,105 -178,290 -85,478 64,131 371,151 500,116z"/>
   <path class="fil2" d="M3023 3680c25,-37 19,-22 62,-50 104,-68 119,-124 183,-154 32,-87 5,-206 -34,-279 -26,-49 -110,-155 -159,-167 -21,-5 -163,56 -272,39 -133,-22 -113,-80 -218,13 -109,96 -173,312 -88,488 36,75 108,90 216,111 110,21 202,17 310,-1z"/>
   <path class="fil2" d="M6955 2775c-276,86 -136,475 120,392 252,-81 135,-472 -120,-392z"/>
   <path class="fil2" d="M2830 2459c-263,57 -198,455 80,404 100,-19 186,-123 158,-252 -21,-100 -126,-176 -238,-152z"/>
   <path class="fil2" d="M2663 6832c30,248 446,223 408,-60 -33,-246 -442,-219 -408,60z"/>
   <path class="fil3" d="M2997 7825c54,-6 144,-27 189,-50 45,-24 70,-93 83,-159 -70,33 -68,80 -191,159 -8,6 -25,14 -38,21l-43 29z"/>
   <path class="fil3" d="M3023 3680c152,-26 219,-52 245,-204 -64,30 -79,86 -183,154 -43,28 -37,13 -62,50z"/>
   <path class="fil4" d="M7160 3990c155,-23 214,-45 249,-195 -70,33 -67,83 -207,165 -3,1 -13,6 -17,9l-25 21z"/>
   <path class="fil5" d="M5808 2642c81,22 181,100 250,136l18 -45c-69,-39 -172,-90 -255,-112 -21,11 -2,2 -13,21z"/>
   <path class="fil6" d="M5776 7267c66,-55 451,-242 681,-494l179 -198c110,-140 215,-293 304,-473 47,-98 212,-454 193,-569 -61,-57 -260,-242 -342,-261 -184,-42 -279,135 -325,271 -97,285 -1,592 -284,919 -64,75 -220,233 -332,274 -180,65 -340,-39 -406,-154 -79,-136 -18,-353 -67,-540 -119,-461 -745,-715 -269,-1201 88,-89 234,-163 375,-232 683,-332 60,-671 -59,-1114 -48,-182 -62,-359 -12,-548 66,-250 147,-297 194,-401 -194,-45 -354,-80 -570,-90 -136,-6 -498,7 -608,55 37,113 159,259 58,519 -38,97 -77,134 -129,198 -248,301 -33,435 25,738 44,230 -112,320 -226,409 -126,99 -247,188 -371,284 -114,89 -258,182 -303,351 -78,293 91,465 -90,846l-114 200c45,35 104,54 153,87 86,57 193,152 254,232 33,43 63,106 101,139 209,-46 303,15 435,114 200,150 227,83 488,93 237,9 320,303 400,488 30,71 69,135 92,197 138,-14 484,-81 575,-139z"/>
   <path class="fil7" d="M3269 7616c-13,66 -38,135 -83,159 -45,23 -135,44 -189,50 -129,35 -436,15 -500,-116 -93,-188 -24,-373 85,-478 106,-102 94,-37 227,-18 111,15 231,-46 269,-38 84,17 259,259 191,441zm4777 -4516l0 165c-14,166 -69,334 -174,492 -74,110 -255,301 -372,332 4,49 35,128 49,182 174,705 81,1411 -285,2034 -120,205 -262,386 -429,555 -36,36 -55,47 -90,79 -37,32 -50,47 -91,79 -475,382 -1052,615 -1679,615 -303,0 -653,-43 -919,-149l-234 -81c-21,90 -89,180 -140,248 -189,253 -489,394 -803,395l-3 0c-153,0 -310,-32 -458,-101 -155,-72 -312,-208 -404,-348 -318,-482 -195,-1099 211,-1403 54,-41 182,-123 250,-138l-85 -243c-28,-69 -57,-173 -74,-254 -99,-481 -96,-770 2,-1250 34,-164 153,-444 157,-487 -146,-34 -354,-221 -435,-329 -166,-221 -208,-407 -208,-678 0,-331 191,-612 440,-798 193,-145 404,-185 652,-185 298,0 604,190 765,400 40,53 116,170 133,243 71,-6 174,-65 250,-90 88,-29 166,-47 258,-70 189,-48 389,-71 621,-71 246,0 692,74 902,155 27,10 38,19 66,31l258 118c58,-39 181,-240 481,-345 721,-252 1337,276 1388,897zm-5383 3732c-34,-279 375,-306 408,-60 38,283 -378,308 -408,60zm1202 -126c204,-34 286,258 680,229 182,-13 191,-42 290,159 28,57 127,278 137,330 -280,7 -898,-90 -1082,-240 4,-89 17,-155 10,-248 -4,-50 -38,-209 -35,-230zm-834 -508c447,77 743,540 645,987 -25,113 -113,317 -189,362 2,-107 -25,-190 -52,-277 -37,-39 -23,-66 -147,-194l-44 -42c-15,-13 -9,-6 -20,-20 66,-149 87,-282 -6,-427 -63,-99 -173,-198 -355,-196 -160,1 -293,97 -350,200 -92,168 -65,262 -2,423 -159,182 -236,180 -267,532 -221,-204 -267,-678 -84,-967 142,-223 456,-473 871,-381zm4378 -2403c-35,150 -94,172 -249,195 -133,37 -453,16 -516,-101 -97,-180 -25,-401 85,-498 105,-94 94,-27 228,-9 113,14 240,-50 276,-35 106,47 236,275 176,448zm-4141 -319c-26,152 -93,178 -245,204 -108,18 -200,22 -310,1 -108,-21 -180,-36 -216,-111 -85,-176 -21,-392 88,-488 105,-93 85,-35 218,-13 109,17 251,-44 272,-39 49,12 133,118 159,167 39,73 66,192 34,279zm3687 -701c255,-80 372,311 120,392 -256,83 -396,-306 -120,-392zm-3064 -82c59,-39 230,-107 307,-122 108,90 174,300 60,449 -87,115 -210,207 -220,425 -20,417 289,536 47,725 -64,50 -120,91 -186,142 -119,94 -238,175 -357,274 -586,484 0,803 -477,1404 -187,0 -78,-18 -372,-2 -146,-186 -239,-776 -239,-1049 0,-275 94,-863 239,-1049 366,22 628,-15 906,-291 93,-92 181,-210 239,-368 82,-224 56,-305 53,-538zm2167 85c-164,343 -65,781 126,1025 180,229 479,438 931,405l189 -33c37,196 94,344 112,569 19,253 -11,423 -35,660 -84,-12 -152,-39 -194,-108 -82,-29 -145,-173 -343,-224 -245,-64 -445,105 -530,295 -31,70 -56,137 -75,216 -94,399 31,506 -311,843 -32,31 -109,108 -160,119 -221,49 -150,-283 -161,-393 -41,-403 -225,-523 -390,-763 -161,-232 -36,-389 202,-516 121,-65 272,-124 370,-201 96,-74 198,-233 212,-367 46,-461 -528,-659 -392,-1280 39,-175 115,-283 199,-383 11,-19 -8,-10 13,-21 83,22 186,73 255,112l-18 45zm-3228 -319c112,-24 217,52 238,152 28,129 -58,233 -158,252 -278,51 -343,-347 -80,-404zm4342 -92c426,61 743,523 650,975 -31,151 -101,300 -190,372 -4,-111 -15,-169 -52,-266 -55,-98 -127,-212 -215,-254 24,-83 59,-113 58,-221 -2,-427 -550,-563 -762,-221 -112,180 -56,275 -5,445 -183,88 -260,319 -267,522 -55,-69 -73,-73 -127,-188 -193,-414 -23,-892 374,-1094 131,-66 373,-124 536,-70zm-39 3166c64,27 113,56 196,75 -148,587 -553,1078 -1010,1390 -109,75 -392,239 -543,269 -91,58 -437,125 -575,139 -23,-62 -62,-126 -92,-197 -80,-185 -163,-479 -400,-488 -261,-10 -288,57 -488,-93 -132,-99 -226,-160 -435,-114 -38,-33 -68,-96 -101,-139 -61,-80 -168,-175 -254,-232 -49,-33 -108,-52 -153,-87l114 -200c181,-381 12,-553 90,-846 45,-169 189,-262 303,-351 124,-96 245,-185 371,-284 114,-89 270,-179 226,-409 -58,-303 -273,-437 -25,-738 52,-64 91,-101 129,-198 101,-260 -21,-406 -58,-519 110,-48 472,-61 608,-55 216,10 376,45 570,90 -47,104 -128,151 -194,401 -50,189 -36,366 12,548 119,443 742,782 59,1114 -141,69 -287,143 -375,232 -476,486 150,740 269,1201 49,187 -12,404 67,540 66,115 226,219 406,154 112,-41 268,-199 332,-274 283,-327 187,-634 284,-919 46,-136 141,-313 325,-271 82,19 281,204 342,261zm-4097 -3478c470,106 735,548 640,990 -28,129 -112,306 -188,361 1,-92 -9,-204 -57,-270 -39,-121 -129,-188 -206,-261 26,-89 60,-109 55,-231 -17,-412 -562,-544 -768,-193 -100,170 -52,266 -2,424 -39,46 -67,49 -107,98 -107,133 -152,239 -156,431 -3,-2 -7,-5 -9,-7 -1,-1 -5,-4 -8,-6l-31 -34c-411,-548 11,-1442 837,-1302z"/>
  </g>
 </g>
</svg>
