<?xml version="1.0" encoding="UTF-8"?>
<!DOCTYPE svg PUBLIC "-//W3C//DTD SVG 1.1//EN" "http://www.w3.org/Graphics/SVG/1.1/DTD/svg11.dtd">
<!-- Creator: CorelDRAW X7 -->
<svg xmlns="http://www.w3.org/2000/svg" xml:space="preserve" width="98.7776mm" height="98.7776mm" version="1.1" style="shape-rendering:geometricPrecision; text-rendering:geometricPrecision; image-rendering:optimizeQuality; fill-rule:evenodd; clip-rule:evenodd"
viewBox="0 0 9878 9878"
 xmlns:xlink="http://www.w3.org/1999/xlink">
 <defs>
  <style type="text/css">
   <![CDATA[
    .fil0 {fill:none}
    .fil4 {fill:black}
    .fil1 {fill:#33CC99}
    .fil3 {fill:#E9E9E9}
    .fil2 {fill:#FFCC00}
   ]]>
  </style>
 </defs>
 <g id="Camada_x0020_1">
  <metadata id="CorelCorpID_0Corel-Layer"/>
  <rect class="fil0" width="9878" height="9878"/>
  <g id="_1851905565904">
   <path class="fil1" d="M2112 6679c-79,37 -161,317 -180,444 -51,331 7,378 220,373 115,-3 162,-18 176,-132 11,-87 -1,-203 -17,-285 -21,-105 -117,-438 -199,-400z"/>
   <path class="fil1" d="M7301 7381c19,108 78,115 188,116 106,1 185,5 210,-99 36,-150 -23,-401 -71,-530 -22,-59 -78,-183 -118,-191 -91,-20 -251,450 -209,704z"/>
   <g>
    <path class="fil2" d="M4285 6772l1241 0 0 208 -1241 -2 0 -206zm0 -517l1240 0 0 207 -1240 0 0 -207zm0 -516l1240 0 3 206 -1243 0 0 -206zm0 -517l1240 0 0 207 -1240 0 0 -207zm-310 2583l516 -1c0,-495 -43,-516 220,-515 125,0 250,-1 375,-1 277,-1 233,1 233,516l514 0 2 -2892 -1860 0 0 2893z"/>
    <path class="fil2" d="M3356 7082l206 0 0 207 -207 0 1 -207zm-1 -517l207 0 0 207 -207 0 0 -207zm-207 1034l622 0 -2 -1240 -616 0 -4 1240z"/>
    <path class="fil2" d="M6247 7081l209 0 0 209 -209 0 0 -209zm0 -517l209 0 -1 209 -208 0 0 -209zm-204 1034l619 0 -2 -1238 -617 0 0 1238z"/>
    <polygon class="fil3" points="4286,4705 5525,4705 5524,4396 4285,4396 "/>
    <polygon class="fil3" points="4698,7805 5112,7805 5112,7495 4698,7495 "/>
   </g>
   <path class="fil4" d="M4737 7625l413 0 0 310 -413 0 0 -310zm1345 -1135l617 0 1 1238 -619 0 1 -1238zm-2892 -1l617 0 2 1240 -622 0 3 -1240zm824 -1447l1860 0 -2 2892 -514 0c0,-515 44,-517 -234,-516 -125,0 -249,1 -374,1 -263,-1 -221,20 -221,515l-515 1 0 -2893zm310 -516l1239 0 1 309 -1240 0 0 -309zm516 -207l-542 0c-81,0 -181,100 -181,181l0 335c-155,0 -310,-31 -310,104l0 1343 -723 0c-63,0 -104,41 -104,103l0 1447c0,62 41,103 104,103l723 0c0,85 -20,207 103,207l2067 0c123,0 103,-122 103,-207l724 0c62,0 103,-41 103,-103l0 -1447c0,-62 -41,-103 -103,-103l-724 0 0 -1343c0,-135 -155,-104 -310,-104l0 -335c0,-81 -100,-181 -181,-181l-542 0 0 -310 -207 0 0 310z"/>
   <path class="fil4" d="M5353 3466c-247,157 -575,187 -819,0 27,-224 172,-284 410,-284 237,0 381,60 409,284zm-461 -895c252,-75 368,323 108,396 -253,72 -383,-314 -108,-396zm-530 717c-40,-33 -78,-116 -96,-164 -76,-198 -53,-436 49,-609 294,-493 975,-488 1261,9 126,217 117,475 0,697 -8,16 -12,26 -24,41 -1,2 -4,5 -6,7l-14 13c-1,-3 -5,4 -7,6 -47,-70 -53,-96 -109,-152 -46,-47 -81,-76 -147,-109 41,-93 156,-240 39,-455 -162,-297 -589,-278 -733,8 -110,217 2,353 43,447 -149,79 -176,141 -256,261zm-348 -480c0,284 36,442 215,662 150,185 405,332 650,332 285,0 443,-37 663,-215 100,-82 183,-187 239,-304 121,-255 129,-559 6,-815l-129 -194c-21,-26 -29,-41 -52,-64l-114 -93c-41,-31 -93,-61 -136,-84 -317,-166 -725,-107 -1011,125 -73,59 -100,86 -156,166 -29,42 -63,95 -84,136 -39,75 -91,235 -91,348z"/>
   <path class="fil4" d="M2364 4293c27,-224 173,-284 410,-284 238,0 381,60 410,284 -248,157 -576,187 -820,0zm359 -896c251,-75 368,323 107,397 -253,71 -383,-315 -107,-397zm-562 682c-7,-10 -18,-28 -24,-40 -118,-216 -114,-491 9,-697 293,-494 974,-489 1260,8 130,225 108,584 -30,745l-14 13c-1,-2 -5,5 -7,6 -76,-113 -109,-186 -256,-260 41,-93 156,-240 39,-455 -162,-297 -589,-278 -733,8 -110,217 2,353 44,447 -69,36 -98,59 -148,109 -56,56 -62,81 -109,152l-31 -36zm-317 -445c0,285 37,443 215,663 59,73 87,101 167,156 338,237 745,239 1088,6 127,-87 231,-210 297,-349 152,-319 121,-659 -78,-951 -146,-216 -430,-390 -695,-390 -280,0 -446,39 -663,215 -25,21 -41,29 -64,52 -137,137 -267,395 -267,598z"/>
   <path class="fil4" d="M6704 4293c27,-224 172,-284 410,-284 237,0 381,60 409,284 -247,157 -575,187 -819,0zm358 -896c252,-75 368,323 108,397 -253,71 -383,-315 -108,-397zm-530 718c-11,-10 -6,-4 -20,-21 -149,-179 -158,-531 -27,-752 491,-824 1698,-130 1261,705 -9,17 -12,26 -24,41l-27 26c-76,-113 -110,-186 -256,-260 32,-72 72,-99 84,-209 54,-466 -578,-636 -778,-238 -35,69 -53,160 -40,249 15,104 53,130 83,198 -149,79 -176,141 -256,261zm-348 -481c0,285 36,443 215,663 64,79 27,45 109,111 296,234 672,297 1010,134l194 -129c79,-64 45,-27 110,-109 319,-402 290,-932 -46,-1268l-114 -92c-41,-32 -93,-62 -136,-84 -362,-189 -870,-83 -1121,233 -119,151 -221,332 -221,541z"/>
   <path class="fil4" d="M2243 6809c82,-39 179,294 200,400 16,82 27,198 16,285 -14,113 -61,129 -176,131 -212,5 -270,-41 -220,-373 20,-126 101,-406 180,-443zm-399 545c0,201 8,453 310,478l0 310 206 0 0 -310c281,-23 310,-245 310,-452 0,-235 -80,-494 -206,-672 -109,-154 -298,-156 -409,-7 -121,163 -211,441 -211,653z"/>
   <path class="fil4" d="M7430 7509c-43,-253 118,-724 208,-704 40,9 96,133 118,191 48,129 107,380 71,530 -25,104 -104,101 -210,100 -110,-2 -169,-9 -187,-117zm-213 -155c0,201 8,453 310,478l0 310 206 0 0 -310c281,-23 310,-245 310,-452 0,-237 -145,-788 -387,-788 -95,0 -159,17 -227,109 -122,163 -212,441 -212,653z"/>
   <polygon class="fil4" points="4324,7108 5565,7110 5565,6902 4324,6902 "/>
   <polygon class="fil4" points="4324,6075 5567,6075 5563,5869 4324,5869 "/>
   <polygon class="fil4" points="4324,5559 5564,5559 5563,5352 4324,5352 "/>
   <polygon class="fil4" points="4324,6592 5564,6592 5563,6385 4324,6385 "/>
   <polygon class="fil4" points="6286,7420 6494,7420 6495,7211 6286,7211 "/>
   <polygon class="fil4" points="6286,6903 6494,6903 6495,6694 6286,6694 "/>
   <polygon class="fil4" points="3394,6902 3600,6902 3600,6695 3394,6695 "/>
   <polygon class="fil4" points="3394,7419 3600,7419 3600,7212 3394,7212 "/>
  </g>
 </g>
</svg>
