<?xml version="1.0" encoding="UTF-8"?>
<!DOCTYPE svg PUBLIC "-//W3C//DTD SVG 1.1//EN" "http://www.w3.org/Graphics/SVG/1.1/DTD/svg11.dtd">
<!-- Creator: CorelDRAW X7 -->
<svg xmlns="http://www.w3.org/2000/svg" xml:space="preserve" width="98.7776mm" height="98.7776mm" version="1.1" style="shape-rendering:geometricPrecision; text-rendering:geometricPrecision; image-rendering:optimizeQuality; fill-rule:evenodd; clip-rule:evenodd"
viewBox="0 0 9878 9878"
 xmlns:xlink="http://www.w3.org/1999/xlink">
 <defs>
  <style type="text/css">
   <![CDATA[
    .fil0 {fill:none}
    .fil1 {fill:black}
    .fil3 {fill:#32A7DF}
    .fil2 {fill:#33CC99}
   ]]>
  </style>
 </defs>
 <g id="Camada_x0020_1">
  <metadata id="CorelCorpID_0Corel-Layer"/>
  <rect class="fil0" width="9878" height="9878"/>
  <g id="_1851951902928">
   <path class="fil1" d="M7548 6039c-249,159 -581,189 -827,0 28,-226 175,-286 414,-286 240,0 385,60 413,286zm-4379 0c-249,159 -581,189 -827,0 28,-226 174,-286 414,-286 239,0 384,60 413,286zm3914 -903c254,-76 371,325 109,400 -256,72 -387,-318 -109,-400zm-4379 0c254,-76 371,325 108,400 -255,72 -386,-318 -108,-400zm3747 558c-24,-63 -39,-130 -44,-202 -10,-152 27,-300 94,-412 297,-498 983,-494 1272,8 158,274 74,677 -52,771 -47,-70 -53,-96 -109,-153 -47,-47 -83,-76 -149,-110 42,-94 158,-242 39,-459 -219,-403 -845,-200 -779,260 15,104 53,131 84,200 -151,79 -178,141 -259,262l-97 -165zm-4023 -97c-151,79 -179,141 -259,262 -2,-2 -6,-9 -7,-6 -1,2 -6,-6 -7,-7l-80 -143c-317,-797 835,-1427 1314,-623 67,112 104,259 94,412 -6,91 -59,306 -141,367 -77,-114 -110,-188 -258,-263 30,-69 68,-95 83,-199 13,-90 -4,-182 -39,-251 -149,-294 -580,-304 -740,-9 -37,67 -56,158 -46,249 13,111 53,138 86,211zm4293 -2165c28,-225 174,-286 414,-286 239,0 385,61 413,286 -249,160 -582,188 -827,0zm-4379 0c28,-225 174,-286 414,-286 239,0 385,61 413,286 -249,160 -582,188 -827,0zm4741 -903c254,-76 371,326 109,400 -256,72 -387,-317 -109,-400zm-4379 0c254,-76 371,326 108,400 -255,72 -386,-317 -108,-400zm3844 724c-11,-10 -6,-4 -20,-21l-36 -56c-119,-217 -115,-495 9,-703 412,-692 1425,-334 1360,424 -8,96 -64,299 -140,356 -76,-114 -110,-189 -258,-264 42,-93 158,-242 39,-459 -163,-299 -594,-281 -740,9 -110,219 2,356 45,451 -150,79 -179,141 -259,263zm-4379 0c-11,-10 -6,-4 -20,-21l-36 -56c-119,-217 -115,-495 9,-703 412,-692 1424,-334 1360,424 -9,111 -40,196 -88,288l-52 68c-76,-114 -111,-189 -258,-264 32,-72 72,-99 85,-210 54,-470 -583,-642 -786,-240 -110,219 2,356 45,451 -151,79 -178,141 -259,263zm-352 -485c0,251 19,379 162,595 36,55 62,76 99,122 77,97 274,208 392,246 61,20 118,26 181,41l0 729c-58,14 -119,21 -171,38 -128,39 -235,101 -334,187 -64,56 -101,86 -157,169 -192,284 -235,641 -84,953 21,44 57,97 84,137 21,30 23,31 46,58 151,187 409,335 655,335 321,0 468,-49 719,-258l97 -112c35,-45 59,-89 84,-138 87,-176 62,-147 104,-326l521 0 0 -208 -521 0c-14,-58 -21,-119 -37,-172 -91,-293 -332,-534 -626,-625 -52,-16 -113,-24 -171,-38l0 -729c58,-14 119,-21 171,-38 62,-19 91,-35 146,-62 189,-94 323,-229 417,-417 84,-168 60,-147 100,-318l2502 0c40,171 17,150 100,318 49,98 102,172 173,244 72,71 146,124 244,173 168,83 147,60 317,100l0 729c-170,40 -149,17 -317,100 -55,28 -82,43 -131,77 -33,24 -30,24 -57,48 -219,191 -266,339 -329,610l-521 0 0 208 521 0c40,171 17,150 100,317 144,290 466,517 774,517 188,0 299,-3 472,-87 45,-22 98,-57 138,-85l216 -213c301,-432 214,-995 -193,-1304 -175,-132 -278,-144 -464,-188l0 -729c204,-48 329,-71 505,-225 30,-26 38,-24 65,-53 138,-152 264,-380 264,-596 0,-287 -37,-446 -217,-668 -21,-26 -30,-42 -53,-65 -139,-140 -397,-270 -603,-270 -321,0 -468,49 -719,258 -24,20 -30,33 -48,56 -176,220 -174,252 -237,520l-2502 0c-47,-204 -71,-329 -224,-505 -56,-65 -87,-102 -169,-157 -706,-478 -1484,104 -1484,701z"/>
   <path class="fil2" d="M3064 7798c101,-2 252,-36 355,-53 196,-32 164,3 256,-136 127,-191 199,-269 408,-372 2,-236 19,-202 -80,-351 -138,-208 -150,-217 -195,-549 -283,76 -765,405 -939,571 -30,29 -54,59 -82,87 -123,122 -385,410 -436,561 118,-12 368,-95 449,-28 48,40 234,226 264,270z"/>
   <path class="fil2" d="M6547 6699c-109,-97 -437,-286 -615,-341 -49,279 -106,224 -16,401 32,64 157,278 144,342 -17,83 -283,266 -353,403 -52,102 -53,73 -1,154l98 136c114,-10 273,-51 391,-75 130,-27 304,-12 443,-15 21,-42 149,-238 182,-273 65,-67 299,-39 410,-39 -96,-178 -520,-615 -683,-693z"/>
   <g>
    <path class="fil3" d="M5800 8018l1766 0c-38,-140 -138,-298 -194,-417l-422 1c-33,66 -106,167 -154,236 -75,108 -162,76 -315,76 -144,0 -564,41 -681,104z"/>
    <path class="fil3" d="M2116 8018l889 0c-84,-82 -243,-220 -301,-307l-480 85c-21,17 -7,0 -26,30l-82 192z"/>
    <path class="fil3" d="M3091 8018l1987 0 638 0c-84,-84 -114,-158 -181,-236 -31,-59 -104,-130 -92,-202 27,-157 266,-422 387,-511 -25,-112 -138,-256 -173,-365 -24,-75 65,-329 80,-421 -587,-194 -1129,-177 -1726,-18 0,51 46,286 64,341 16,51 119,192 156,247 87,129 60,163 61,344 1,182 -39,171 -155,249 -361,245 -173,178 -387,421 -88,100 -520,81 -659,151z"/>
   </g>
   <path class="fil1" d="M3196 7931c-30,-44 -216,-230 -264,-270 -81,-67 -331,16 -449,27 51,-150 313,-438 436,-560 28,-28 52,-58 82,-87 174,-166 656,-495 940,-571 44,331 56,341 194,549 100,149 82,115 80,350 -208,104 -281,182 -408,373 -92,139 -60,104 -256,136 -103,17 -254,51 -355,53zm3483 -1099c163,78 587,515 683,693 -111,0 -345,-28 -409,39 -34,35 -161,231 -182,273 -140,3 -314,-12 -444,15 -118,24 -277,65 -391,75l-98 -136c-51,-82 -51,-52 1,-154 70,-137 336,-320 353,-403 13,-64 -112,-278 -144,-342 -89,-177 -33,-122 16,-401 178,55 506,244 615,341zm-2151 -1662c0,-476 -88,-773 417,-773 499,0 417,284 417,773 -218,86 -208,90 -208,348 0,185 0,369 0,549l-413 7c-19,-146 -4,-398 -4,-556 0,-254 8,-267 -209,-348zm366 -1390c254,-76 371,326 108,400 -254,72 -387,-317 -108,-400zm-2645 4371l81 -192c19,-30 5,-13 26,-31l480 -84c58,87 217,225 301,307l86 0c140,-70 572,-51 659,-151 214,-243 26,-176 387,-421 116,-78 156,-67 155,-249 -1,-181 26,-215 -61,-344 -37,-55 -140,-196 -156,-247 -18,-55 -64,-291 -64,-341 598,-159 1139,-176 1726,18 -15,92 -104,346 -80,421 35,109 148,253 174,365 -121,89 -361,354 -388,510 -12,73 62,144 92,203 67,78 97,152 181,236l84 0c117,-63 537,-105 681,-105 154,0 241,33 315,-76 48,-68 121,-169 154,-236l422 0c56,118 156,277 194,417l12 38c62,-14 155,-50 207,-77 -47,-89 -111,-278 -175,-386 -302,-505 -588,-864 -1110,-1184l-577 -283c-71,-27 -130,-47 -215,-72 -79,-23 -147,-41 -229,-58 -61,-12 -182,-38 -249,-38l0 -690c109,-26 209,-82 209,-208 1,-139 0,-279 0,-418 0,-172 -7,-232 -76,-342 -41,-65 -145,-171 -224,-192 96,-143 137,-273 48,-452 -195,-391 -832,-257 -791,243 9,99 53,152 91,209 -78,21 -183,127 -224,192 -69,110 -76,170 -75,342 0,139 -1,279 -1,418 0,86 11,113 68,141 31,16 119,61 141,67l0 690c-353,83 -280,47 -660,175 -73,24 -137,57 -200,86 -32,14 -61,23 -92,39 -251,129 -545,333 -752,525 -125,115 -139,150 -208,222 -185,189 -560,780 -577,987 70,16 134,50 195,65 10,-17 8,-15 15,-39z"/>
  </g>
 </g>
</svg>
