<?xml version="1.0" encoding="UTF-8"?>
<!DOCTYPE svg PUBLIC "-//W3C//DTD SVG 1.1//EN" "http://www.w3.org/Graphics/SVG/1.1/DTD/svg11.dtd">
<!-- Creator: CorelDRAW X7 -->
<svg xmlns="http://www.w3.org/2000/svg" xml:space="preserve" width="238.125mm" height="95.25mm" version="1.1" style="shape-rendering:geometricPrecision; text-rendering:geometricPrecision; image-rendering:optimizeQuality; fill-rule:evenodd; clip-rule:evenodd"
viewBox="0 0 23812 9525"
 xmlns:xlink="http://www.w3.org/1999/xlink">
 <defs>
  <style type="text/css">
   <![CDATA[
    .fil4 {fill:#32A7DF}
    .fil7 {fill:#333333}
    .fil2 {fill:#333333}
    .fil5 {fill:#33CC99}
    .fil6 {fill:#FDFDFD}
    .fil3 {fill:#FFCC00}
    .fil0 {fill:#333333;fill-rule:nonzero}
    .fil1 {fill:#333333;fill-rule:nonzero}
   ]]>
  </style>
 </defs>
 <g id="Camada_x0020_1">
  <metadata id="CorelCorpID_0Corel-Layer"/>
  <g id="_1616204911632">
   <path class="fil0" d="M331 3203l0 2182 380 0 0 -2182 -380 0zm2729 617l0 1565 381 0 0 -2182 -409 0 -663 1032 -664 -1032 -408 0 0 2182 380 0 0 -1558 682 1022 13 0 688 -1029zm2630 116c0,-112 -19,-213 -58,-303 -38,-89 -93,-166 -165,-230 -71,-64 -159,-114 -261,-148 -103,-34 -218,-52 -345,-52l-860 0 0 2182 380 0 0 -702 435 0c121,0 234,-16 340,-48 106,-32 199,-79 278,-142 79,-62 141,-140 188,-233 45,-94 68,-202 68,-324zm-389 7c0,119 -42,215 -127,287 -84,72 -200,108 -345,108l-448 0 0 -789 448 0c143,0 258,33 343,99 86,65 129,164 129,295zm1691 -755l-355 0 -959 2197 392 0 225 -527 1031 0 221 527 405 0 -960 -2197zm194 1330l-751 0 374 -872 377 872zm2903 518l-246 -250c-93,88 -188,157 -283,207 -96,51 -210,77 -343,77 -104,0 -200,-20 -288,-61 -88,-40 -165,-96 -229,-167 -65,-70 -114,-153 -150,-247 -35,-95 -53,-196 -53,-304 0,-108 18,-209 53,-302 36,-94 85,-175 150,-245 64,-70 141,-125 229,-165 88,-41 184,-61 288,-61 125,0 236,25 333,75 98,50 191,115 278,196l246 -283c-52,-50 -107,-96 -165,-137 -58,-42 -122,-78 -190,-108 -69,-30 -144,-53 -226,-70 -82,-17 -173,-25 -273,-25 -166,0 -318,30 -455,89 -137,59 -255,140 -355,243 -100,103 -177,223 -232,360 -55,137 -83,283 -83,439 0,158 28,305 85,443 56,137 133,256 232,356 98,101 215,180 350,239 135,58 283,87 443,87 101,0 194,-9 278,-27 85,-17 162,-43 233,-77 70,-35 136,-75 197,-122 62,-47 120,-100 176,-160zm1325 -1477l691 0 0 -356 -1769 0 0 356 691 0 0 1826 387 0 0 -1826zm3162 732c0,-154 -28,-299 -84,-436 -56,-137 -134,-257 -234,-359 -99,-101 -219,-182 -358,-241 -139,-59 -293,-89 -461,-89 -168,0 -322,30 -461,90 -139,61 -260,142 -362,245 -101,103 -180,223 -236,360 -57,137 -85,282 -85,436 0,154 28,299 85,436 56,137 134,257 233,359 100,101 219,182 359,241 139,59 292,89 461,89 168,0 322,-30 461,-90 139,-61 259,-142 361,-245 102,-103 181,-223 237,-360 56,-137 84,-282 84,-436zm-402 6c0,106 -18,206 -54,301 -37,94 -87,176 -151,246 -65,70 -142,125 -233,165 -90,41 -189,61 -297,61 -108,0 -208,-21 -299,-62 -92,-42 -170,-98 -235,-169 -66,-70 -117,-153 -153,-247 -36,-95 -55,-195 -55,-301 0,-106 19,-206 55,-301 36,-94 87,-176 151,-246 64,-70 142,-125 232,-165 90,-41 190,-61 298,-61 108,0 207,21 299,62 91,42 170,98 235,169 65,70 116,153 153,247 36,95 54,195 54,301zm1172 -523c0,-73 31,-135 93,-186 63,-51 150,-76 262,-76 100,0 198,19 296,58 98,38 196,94 296,166l206 -289c-113,-90 -233,-158 -360,-205 -128,-46 -272,-70 -432,-70 -108,0 -208,15 -298,46 -92,30 -170,73 -235,129 -65,56 -115,123 -153,201 -37,78 -55,164 -55,260 0,102 16,188 48,259 32,70 79,130 141,180 61,50 137,92 228,125 90,33 194,63 311,90 101,25 184,49 248,72 63,23 113,47 150,73 36,26 61,55 75,86 13,31 20,66 20,106 0,85 -35,152 -104,202 -70,50 -164,75 -282,75 -137,0 -260,-24 -368,-73 -108,-49 -215,-119 -321,-210l-231 274c131,118 274,206 427,263 154,57 315,86 483,86 115,0 219,-15 315,-44 95,-29 177,-72 245,-128 68,-56 121,-124 159,-205 38,-81 57,-174 57,-278 0,-91 -15,-170 -45,-238 -30,-68 -75,-127 -133,-178 -58,-50 -132,-94 -220,-129 -88,-35 -190,-67 -304,-96 -105,-25 -191,-49 -259,-72 -67,-23 -120,-48 -159,-75 -38,-27 -65,-56 -79,-87 -15,-31 -22,-69 -22,-112z"/>
   <path class="fil1" d="M4632 6573c0,-62 -11,-118 -32,-168 -22,-50 -52,-93 -92,-129 -40,-36 -89,-63 -146,-82 -57,-19 -121,-29 -192,-29l-479 0 0 1215 212 0 0 -390 242 0c67,0 130,-9 189,-27 59,-18 111,-44 155,-79 44,-35 79,-78 105,-130 25,-52 38,-113 38,-181zm-217 4c0,67 -24,120 -71,160 -47,40 -111,60 -192,60l-249 0 0 -439 249 0c80,0 144,18 191,55 48,36 72,91 72,164zm1652 194c0,-86 -15,-167 -46,-243 -32,-76 -75,-143 -131,-200 -55,-56 -122,-101 -199,-134 -78,-33 -163,-50 -257,-50 -94,0 -180,17 -257,51 -78,33 -145,79 -201,136 -57,57 -101,124 -132,200 -32,77 -47,158 -47,244 0,85 15,166 47,243 31,76 74,142 130,199 55,57 122,102 199,135 78,33 164,49 257,49 94,0 180,-17 257,-50 78,-34 145,-79 202,-136 56,-58 100,-125 132,-201 31,-76 46,-157 46,-243zm-224 4c0,59 -10,114 -30,167 -20,53 -48,98 -84,137 -36,39 -79,70 -129,92 -51,23 -106,34 -166,34 -60,0 -116,-12 -167,-35 -51,-23 -94,-54 -131,-93 -36,-40 -65,-86 -85,-138 -20,-53 -30,-109 -30,-168 0,-59 10,-115 30,-167 20,-53 48,-99 84,-138 36,-38 79,-69 130,-92 50,-22 105,-33 165,-33 61,0 116,11 167,34 51,23 95,55 131,94 36,39 65,85 85,138 20,53 30,108 30,168zm653 -292c0,-41 18,-75 52,-103 35,-29 84,-43 146,-43 56,0 111,11 165,32 54,22 109,53 165,93l114 -161c-62,-50 -129,-88 -200,-114 -71,-26 -151,-39 -240,-39 -61,0 -116,8 -167,25 -51,17 -94,41 -130,72 -36,31 -65,69 -86,112 -20,43 -31,92 -31,145 0,57 9,105 27,144 18,39 45,73 79,101 34,28 76,51 127,69 50,19 108,35 173,51 57,13 103,27 138,39 36,13 63,27 84,41 20,15 34,31 42,48 7,17 11,37 11,59 0,47 -20,85 -58,113 -39,28 -91,41 -157,41 -77,0 -145,-13 -205,-40 -60,-28 -120,-67 -179,-117l-128 152c72,66 152,115 237,147 86,32 176,48 269,48 64,0 122,-8 176,-25 53,-16 98,-40 136,-71 38,-31 67,-69 89,-114 21,-45 32,-97 32,-155 0,-51 -9,-95 -26,-133 -16,-37 -41,-70 -74,-99 -32,-28 -73,-52 -122,-72 -49,-19 -106,-37 -170,-53 -58,-14 -106,-28 -144,-40 -37,-13 -67,-27 -88,-42 -22,-15 -37,-31 -45,-49 -8,-17 -12,-38 -12,-62zm944 -318l0 1215 212 0 0 -1215 -212 0zm1052 198l386 0 0 -198 -986 0 0 198 385 0 0 1017 215 0 0 -1017zm624 -198l0 1215 211 0 0 -1215 -211 0zm1036 934l-366 -934 -236 0 505 1224 187 0 505 -1224 -230 0 -365 934zm1946 -328c0,-86 -16,-167 -47,-243 -31,-76 -75,-143 -130,-200 -56,-56 -122,-101 -200,-134 -77,-33 -163,-50 -257,-50 -93,0 -179,17 -257,51 -77,33 -144,79 -201,136 -57,57 -101,124 -132,200 -31,77 -47,158 -47,244 0,85 16,166 47,243 31,76 75,142 130,199 56,57 122,102 200,135 77,33 163,49 257,49 94,0 179,-17 257,-50 77,-34 144,-79 201,-136 57,-58 101,-125 132,-201 31,-76 47,-157 47,-243zm-224 4c0,59 -10,114 -30,167 -21,53 -49,98 -85,137 -35,39 -79,70 -129,92 -50,23 -106,34 -166,34 -60,0 -115,-12 -166,-35 -51,-23 -95,-54 -131,-93 -37,-40 -65,-86 -85,-138 -21,-53 -31,-109 -31,-168 0,-59 10,-115 31,-167 20,-53 48,-99 84,-138 36,-38 79,-69 129,-92 50,-22 106,-33 166,-33 60,0 116,11 166,34 51,23 95,55 132,94 36,39 64,85 85,138 20,53 30,108 30,168zm653 -292c0,-41 17,-75 52,-103 34,-29 83,-43 146,-43 55,0 110,11 164,32 55,22 110,53 165,93l115 -161c-63,-50 -129,-88 -201,-114 -71,-26 -151,-39 -240,-39 -60,0 -116,8 -166,25 -51,17 -95,41 -131,72 -36,31 -64,69 -85,112 -21,43 -31,92 -31,145 0,57 9,105 27,144 18,39 44,73 78,101 34,28 77,51 127,69 51,19 108,35 174,51 56,13 102,27 138,39 35,13 63,27 83,41 21,15 35,31 42,48 8,17 11,37 11,59 0,47 -19,85 -58,113 -39,28 -91,41 -157,41 -76,0 -145,-13 -205,-40 -60,-28 -119,-67 -179,-117l-128 152c73,66 152,115 238,147 85,32 175,48 269,48 64,0 122,-8 175,-25 53,-16 99,-40 136,-71 38,-31 68,-69 89,-114 21,-45 32,-97 32,-155 0,-51 -8,-95 -25,-133 -17,-37 -42,-70 -74,-99 -32,-28 -74,-52 -123,-72 -49,-19 -106,-37 -169,-53 -58,-14 -106,-28 -144,-40 -38,-13 -67,-27 -89,-42 -21,-15 -36,-31 -44,-49 -8,-17 -12,-38 -12,-62z"/>
   <path class="fil2" d="M20481 8188c-2625,1472 -6103,670 -9478,6 -3376,-664 -7131,-288 -10004,-298 2851,314 6367,56 9741,765 3374,709 7605,1663 9741,-473z"/>
   <path class="fil3" d="M19174 484c1421,900 1601,2148 1825,3627 236,1563 -880,-233 -1840,33 -179,47 -431,199 -600,226 -507,82 -1361,-224 -1552,-741 -190,-511 199,-1132 407,-1488 377,-647 286,-794 342,-1610 53,-783 987,-320 1418,-47z"/>
   <path class="fil4" d="M18124 5150c102,106 486,151 766,359 552,407 -144,1044 -485,1314 -217,172 -483,289 -579,396 -194,218 -1250,538 -1517,401 -94,-264 391,-410 568,-550 252,-200 434,-415 149,-746 -515,-601 -118,-1145 668,-1207 115,-16 421,23 430,33z"/>
   <path class="fil5" d="M19723 7694c145,-838 782,-1509 1388,-1804 80,-46 296,-128 397,-169 316,-131 566,83 367,523 -176,389 -790,965 -1135,1181 -469,274 -624,303 -1017,269z"/>
   <path class="fil6" d="M19959 5198c-240,129 -559,-127 -715,-241 148,-5 279,10 420,35 299,52 290,70 295,206z"/>
   <path class="fil7" d="M19816 7694c395,-225 1166,-1193 1398,-1809 51,-137 164,-382 189,-550 -683,234 -1854,1940 -2065,2646 154,-43 378,-231 478,-287zm236 -2496c90,-102 4,-154 -296,-206 -141,-25 -272,-40 -420,-35 157,114 535,445 716,241zm1504 373c-181,504 -229,530 -288,658 -152,332 -502,866 -743,1104 -303,301 -1023,953 -1446,903 -30,-500 1227,-2483 2221,-3060 129,-74 154,-56 191,-207 45,-190 59,-542 63,-748 18,-1049 -157,-1916 -578,-2693 -303,-559 -1317,-1668 -1804,-1009 -106,144 -250,722 -381,994 -312,646 -486,596 -764,825 -579,478 47,1424 435,1847 862,928 1085,371 1645,741 149,98 178,291 23,420 -182,151 -371,54 -526,-23 -677,-339 -406,-438 -904,-318 -161,40 -347,87 -483,145 -378,112 -964,371 -805,844 152,453 587,663 442,1301 -80,351 -161,423 -389,666 -122,130 -658,408 -561,527 229,281 1126,-838 1321,-1033 175,-175 1130,-1139 1425,-883 -43,217 -283,95 -787,509 -595,488 -1735,2156 -2116,1489 -206,-360 642,-501 900,-1222 167,-466 -209,-867 -367,-1224 -287,-649 153,-837 507,-1007 133,-65 343,-123 495,-173 140,-47 420,-95 529,-145 -86,-139 -453,-401 -803,-920 -332,-492 -608,-1252 -125,-1648 161,-133 294,-167 456,-340 329,-350 504,-1168 731,-1576 104,-188 210,-392 634,-229 1099,423 1787,1767 1968,2982 110,742 31,1196 2,1910 11,178 22,203 16,210 -60,74 -64,188 -134,383z"/>
   <path class="fil7" d="M19249 4108c197,-46 40,-437 263,-526 926,-370 1289,1434 1495,1771 -80,-431 -55,-1106 -584,-1662 -516,-544 -1131,-497 -1290,63 -42,149 -80,401 116,354z"/>
   <path class="fil7" d="M21389 5299c536,-125 1061,-271 1277,-785 291,-693 -440,-1071 -681,-758 121,177 132,43 323,79 252,49 411,469 27,867 -192,197 -484,324 -740,382 -174,54 -278,86 -283,77l77 138z"/>
   <path class="fil7" d="M23114 4537c91,-31 216,10 210,158 -27,669 -1200,482 -1313,674 112,262 1297,-57 1451,-505 101,-292 -209,-595 -469,-465 -197,98 -198,261 -135,360 62,98 94,59 134,-29 41,-88 -89,-120 122,-193z"/>
  </g>
 </g>
</svg>
